SplineFontDB: 3.2
FontName: AreWeThereYet
FullName: AreWeThereYet
FamilyName: AreWeThereYet
Weight: Book
Copyright: NoCopyright (cc) 2020, Met Sender
Version: 001.000
ItalicAngle: 0
UnderlinePosition: -101
UnderlineWidth: 51
Ascent: 819
Descent: 205
InvalidEm: 0
sfntRevision: 0x00010000
LayerCount: 2
Layer: 0 1 "Back" 1
Layer: 1 1 "Fore" 0
XUID: [1021 66 1585159542 28651]
StyleMap: 0x0040
FSType: 0
OS2Version: 4
OS2_WeightWidthSlopeOnly: 0
OS2_UseTypoMetrics: 1
CreationTime: 1582298436
ModificationTime: 1582337688
PfmFamily: 17
TTFWeight: 400
TTFWidth: 5
LineGap: 92
VLineGap: 0
Panose: 2 0 5 3 0 0 0 0 0 0
OS2TypoAscent: 819
OS2TypoAOffset: 0
OS2TypoDescent: -205
OS2TypoDOffset: 0
OS2TypoLinegap: 92
OS2WinAscent: 868
OS2WinAOffset: 0
OS2WinDescent: 96
OS2WinDOffset: 0
HheadAscent: 868
HheadAOffset: 0
HheadDescent: -96
HheadDOffset: 0
OS2SubXSize: 665
OS2SubYSize: 716
OS2SubXOff: 0
OS2SubYOff: 143
OS2SupXSize: 665
OS2SupYSize: 716
OS2SupXOff: 0
OS2SupYOff: 491
OS2StrikeYSize: 51
OS2StrikeYPos: 265
OS2CapHeight: 794
OS2XHeight: 793
OS2Vendor: 'PfEd'
OS2CodePages: 00000001.00000000
OS2UnicodeRanges: 00000003.00000000.00000000.00000000
DEI: 91125
ShortTable: cvt  2
  34
  648
EndShort
ShortTable: maxp 16
  1
  0
  98
  94
  4
  0
  0
  2
  0
  1
  1
  0
  64
  46
  0
  0
EndShort
LangName: 1033 "" "" "Regular" "FontForge : AreWeThereYet : 22-2-2020"
GaspTable: 1 65535 2 0
Encoding: UnicodeBmp
UnicodeInterp: none
NameList: AGL For New Fonts
DisplaySize: -48
AntiAlias: 1
FitToEm: 0
WinInfo: 38 38 14
BeginChars: 65539 98

StartChar: .notdef
Encoding: 65536 -1 0
Width: 374
Flags: W
LayerCount: 2
Fore
SplineSet
34 0 m 1,0,-1
 34 682 l 1,1,-1
 306 682 l 1,2,-1
 306 0 l 1,3,-1
 34 0 l 1,0,-1
68 34 m 1,4,-1
 272 34 l 1,5,-1
 272 648 l 1,6,-1
 68 648 l 1,7,-1
 68 34 l 1,4,-1
EndSplineSet
Validated: 1
EndChar

StartChar: exclam
Encoding: 33 33 4
Width: 393
Flags: W
LayerCount: 2
Fore
SplineSet
142 127 m 1,0,1
 159 126 159 126 184.5 124.5 c 128,-1,2
 210 123 210 123 227.5 122 c 128,-1,3
 245 121 245 121 251 121 c 0,4,5
 261 121 261 121 278.5 72.5 c 128,-1,6
 296 24 296 24 296 0 c 0,7,8
 296 -21 296 -21 271.5 -41.5 c 128,-1,9
 247 -62 247 -62 228 -68 c 0,10,11
 220 -71 220 -71 189 -62 c 128,-1,12
 158 -53 158 -53 132 -43 c 2,13,-1
 105 -33 l 1,14,15
 91 72 91 72 91 86 c 0,16,17
 91 92 91 92 103.5 102.5 c 128,-1,18
 116 113 116 113 129 120 c 2,19,-1
 142 127 l 1,0,1
161 770 m 2,20,21
 165 769 165 769 186.5 770.5 c 128,-1,22
 208 772 208 772 236 763.5 c 128,-1,23
 264 755 264 755 269 737 c 0,24,25
 293 657 293 657 301 547 c 128,-1,26
 309 437 309 437 306 367 c 2,27,-1
 302 297 l 1,28,-1
 191 186 l 1,29,-1
 134 197 l 1,30,-1
 50 741 l 1,31,-1
 161 770 l 2,20,21
EndSplineSet
Validated: 33
EndChar

StartChar: quotedbl
Encoding: 34 34 5
Width: 696
Flags: W
LayerCount: 2
Fore
SplineSet
356 701 m 0,0,1
 369 706 369 706 380.5 702 c 128,-1,2
 392 698 392 698 400 690 c 2,3,-1
 408 681 l 1,4,-1
 406 647 l 1,5,-1
 256 513 l 1,6,-1
 197 506 l 2,7,8
 194 509 194 509 189.5 514.5 c 128,-1,9
 185 520 185 520 177.5 533.5 c 128,-1,10
 170 547 170 547 178 552 c 0,11,12
 221 605 221 605 257 635 c 128,-1,13
 293 665 293 665 356 701 c 0,0,1
234 787 m 0,14,15
 247 792 247 792 258 788 c 128,-1,16
 269 784 269 784 277 776 c 2,17,-1
 285 767 l 1,18,-1
 283 733 l 1,19,-1
 133 599 l 1,20,-1
 74 592 l 1,21,-1
 55 638 l 1,22,23
 149 739 149 739 234 787 c 0,14,15
EndSplineSet
Validated: 1
EndChar

StartChar: numbersign
Encoding: 35 35 6
Width: 962
Flags: W
LayerCount: 2
Fore
SplineSet
788 327 m 0,0,1
 822 323 822 323 758 242 c 0,2,3
 752 234 752 234 752 234 c 1,4,-1
 149 248 l 1,5,6
 149 248 149 248 132 290 c 0,7,8
 116 339 116 339 140 345 c 0,9,10
 202 360 202 360 266 365.5 c 128,-1,11
 330 371 330 371 401 367.5 c 128,-1,12
 472 364 472 364 523 359 c 128,-1,13
 574 354 574 354 659.5 343 c 128,-1,14
 745 332 745 332 788 327 c 0,0,1
810 555 m 0,15,16
 844 551 844 551 781 470 c 0,17,18
 775 462 775 462 775 462 c 1,19,-1
 141 424 l 1,20,-1
 131 521 l 1,21,22
 141 522 141 522 157.5 524 c 128,-1,23
 174 526 174 526 226 531.5 c 128,-1,24
 278 537 278 537 328.5 541.5 c 128,-1,25
 379 546 379 546 448.5 551 c 128,-1,26
 518 556 518 556 578.5 558.5 c 128,-1,27
 639 561 639 561 701.5 560.5 c 128,-1,28
 764 560 764 560 810 555 c 0,15,16
668 655 m 0,29,30
 685 683 685 683 730 597 c 0,31,32
 737 583 737 583 737 583 c 1,33,-1
 544 93 l 1,34,35
 544 93 544 93 497 96 c 0,36,37
 447 103 447 103 452 127 c 0,38,39
 488 290 488 290 533.5 401.5 c 128,-1,40
 579 513 579 513 668 655 c 0,29,30
424 680 m 0,41,42
 441 708 441 708 486 622 c 0,43,44
 493 608 493 608 493 608 c 1,45,-1
 300 118 l 1,46,-1
 208 152 l 1,47,48
 219 190 219 190 238.5 251.5 c 128,-1,49
 258 313 258 313 315 454.5 c 128,-1,50
 372 596 372 596 424 680 c 0,41,42
EndSplineSet
Validated: 37
EndChar

StartChar: dollar
Encoding: 36 36 7
Width: 899
Flags: W
LayerCount: 2
Fore
SplineSet
465 787 m 0,0,1
 473 817 473 817 519 733 c 0,2,3
 527 718 527 718 527 718 c 1,4,-1
 463 7 l 1,5,-1
 425 -62 l 1,6,-1
 329 -38 l 1,7,8
 335 19 335 19 346 112.5 c 128,-1,9
 357 206 357 206 392.5 426.5 c 128,-1,10
 428 647 428 647 465 787 c 0,0,1
668 514 m 1,11,12
 605 576 605 576 555 579 c 0,13,14
 508 582 508 582 445.5 577 c 128,-1,15
 383 572 383 572 342 565 c 128,-1,16
 301 558 301 558 296 554 c 0,17,18
 271 537 271 537 263.5 508.5 c 128,-1,19
 256 480 256 480 261.5 458 c 128,-1,20
 267 436 267 436 276 427 c 0,21,22
 281 422 281 422 350.5 418.5 c 128,-1,23
 420 415 420 415 516.5 400 c 128,-1,24
 613 385 613 385 674 353 c 0,25,26
 691 344 691 344 697.5 320.5 c 128,-1,27
 704 297 704 297 702 274.5 c 128,-1,28
 700 252 700 252 696.5 231 c 128,-1,29
 693 210 693 210 693 209 c 0,30,31
 693 205 693 205 677.5 190 c 128,-1,32
 662 175 662 175 640.5 155 c 128,-1,33
 619 135 619 135 612 127 c 0,34,35
 590 103 590 103 508.5 84 c 128,-1,36
 427 65 427 65 328 64 c 128,-1,37
 229 63 229 63 138 91 c 0,38,39
 94 106 94 106 210 177 c 0,40,41
 240 195 240 195 240 195 c 2,42,43
 244 198 244 198 278.5 183 c 128,-1,44
 313 168 313 168 355 154 c 128,-1,45
 397 140 397 140 455 152.5 c 128,-1,46
 513 165 513 165 560 215 c 0,47,48
 567 222 567 222 577 240.5 c 128,-1,49
 587 259 587 259 592 280 c 128,-1,50
 597 301 597 301 580 308 c 0,51,52
 517 332 517 332 418.5 341 c 128,-1,53
 320 350 320 350 255 350.5 c 128,-1,54
 190 351 190 351 190 355 c 0,55,56
 190 356 190 356 186.5 376.5 c 128,-1,57
 183 397 183 397 181.5 422.5 c 128,-1,58
 180 448 180 448 182 479 c 128,-1,59
 184 510 184 510 195.5 541.5 c 128,-1,60
 207 573 207 573 228 596 c 0,61,62
 271 642 271 642 349 665 c 128,-1,63
 427 688 427 688 470 688 c 0,64,65
 524 688 524 688 627.5 663.5 c 128,-1,66
 731 639 731 639 796 584 c 0,67,68
 829 556 829 556 744 531 c 0,69,70
 707 520 707 520 668 514 c 1,11,12
EndSplineSet
Validated: 37
EndChar

StartChar: percent
Encoding: 37 37 8
Width: 878
Flags: W
LayerCount: 2
Fore
SplineSet
632 715 m 1,0,1
 642 717 642 717 657.5 719.5 c 128,-1,2
 673 722 673 722 704.5 726 c 128,-1,3
 736 730 736 730 754 724 c 128,-1,4
 772 718 772 718 765 702 c 0,5,6
 734 629 734 629 676 542 c 128,-1,7
 618 455 618 455 569 396 c 128,-1,8
 520 337 520 337 471.5 281.5 c 128,-1,9
 423 226 423 226 421 223 c 0,10,11
 410 208 410 208 365.5 159.5 c 128,-1,12
 321 111 321 111 282 70 c 2,13,-1
 243 29 l 1,14,15
 132 139 132 139 126 164 c 0,16,17
 123 175 123 175 249.5 313 c 128,-1,18
 376 451 376 451 504 583 c 2,19,-1
 632 715 l 1,0,1
613 236 m 1,20,21
 627 234 627 234 655 230.5 c 128,-1,22
 683 227 683 227 700 224 c 128,-1,23
 717 221 717 221 724 217 c 0,24,25
 727 215 727 215 729.5 211 c 128,-1,26
 732 207 732 207 732.5 200.5 c 128,-1,27
 733 194 733 194 733.5 187.5 c 128,-1,28
 734 181 734 181 733 170 c 128,-1,29
 732 159 732 159 731.5 152 c 128,-1,30
 731 145 731 145 730 132.5 c 128,-1,31
 729 120 729 120 728 113 c 0,32,33
 724 70 724 70 634 70 c 0,34,35
 618 70 618 70 579.5 104.5 c 128,-1,36
 541 139 541 139 529 160 c 0,37,38
 523 171 523 171 544 190 c 128,-1,39
 565 209 565 209 589 222 c 2,40,-1
 613 236 l 1,20,21
228 649 m 1,41,42
 238 634 238 634 258 608.5 c 128,-1,43
 278 583 278 583 289.5 567 c 128,-1,44
 301 551 301 551 302 545 c 0,45,46
 303 535 303 535 282 512.5 c 128,-1,47
 261 490 261 490 241 479 c 0,48,49
 225 470 225 470 186.5 488 c 128,-1,50
 148 506 148 506 134 520 c 0,51,52
 129 529 129 529 131 553.5 c 128,-1,53
 133 578 133 578 138 604 c 2,54,-1
 144 629 l 1,55,-1
 228 649 l 1,41,42
EndSplineSet
Validated: 33
EndChar

StartChar: ampersand
Encoding: 38 38 9
Width: 858
Flags: W
LayerCount: 2
Fore
SplineSet
779 82 m 1,0,1
 310 310 310 310 299 320 c 0,2,3
 252 364 252 364 222.5 413 c 128,-1,4
 193 462 193 462 183 505.5 c 128,-1,5
 173 549 173 549 175 586.5 c 128,-1,6
 177 624 177 624 190 655 c 0,7,8
 205 689 205 689 254 709 c 128,-1,9
 303 729 303 729 346 735 c 0,10,11
 377 740 377 740 510 720.5 c 128,-1,12
 643 701 643 701 644 684 c 0,13,14
 645 673 645 673 571 603 c 128,-1,15
 497 533 497 533 422 469 c 2,16,-1
 348 405 l 1,17,18
 263 294 263 294 263 265 c 0,19,20
 263 239 263 239 299 184.5 c 128,-1,21
 335 130 335 130 364 130 c 0,22,23
 383 130 383 130 466 226.5 c 128,-1,24
 549 323 549 323 622 420 c 2,25,-1
 696 517 l 1,26,-1
 733 488 l 1,27,-1
 593 167 l 1,28,29
 439 43 439 43 423 43 c 0,30,31
 422 43 422 43 398.5 40 c 128,-1,32
 375 37 375 37 348 36 c 128,-1,33
 321 35 321 35 289 36.5 c 128,-1,34
 257 38 257 38 227.5 49 c 128,-1,35
 198 60 198 60 180 79 c 0,36,37
 178 81 178 81 165 94 c 128,-1,38
 152 107 152 107 145 116 c 128,-1,39
 138 125 138 125 126 142.5 c 128,-1,40
 114 160 114 160 109.5 177 c 128,-1,41
 105 194 105 194 102 215.5 c 128,-1,42
 99 237 99 237 105 262.5 c 128,-1,43
 111 288 111 288 125 315 c 0,44,45
 136 337 136 337 180.5 370 c 128,-1,46
 225 403 225 403 279.5 435.5 c 128,-1,47
 334 468 334 468 337 470 c 0,48,49
 361 487 361 487 413 551 c 128,-1,50
 465 615 465 615 459 625 c 0,51,52
 451 638 451 638 392 650 c 128,-1,53
 333 662 333 662 289 652 c 0,54,55
 269 647 269 647 265 609 c 128,-1,56
 261 571 261 571 280 546 c 0,57,58
 320 493 320 493 348.5 465 c 128,-1,59
 377 437 377 437 442 380 c 0,60,61
 498 332 498 332 584.5 270.5 c 128,-1,62
 671 209 671 209 730 172 c 2,63,-1
 788 134 l 1,64,-1
 820 104 l 1,65,-1
 779 82 l 1,0,1
EndSplineSet
Validated: 37
EndChar

StartChar: quotesingle
Encoding: 39 39 10
Width: 460
Flags: W
LayerCount: 2
Fore
SplineSet
185 764 m 2,0,1
 234 765 234 765 245 743 c 0,2,3
 251 727 251 727 249 708 c 128,-1,4
 247 689 247 689 242 674 c 2,5,-1
 237 659 l 1,6,-1
 155 584 l 1,7,8
 159 629 159 629 159 676 c 0,9,10
 159 697 159 697 151 707 c 128,-1,11
 143 717 143 717 133 724 c 128,-1,12
 123 731 123 731 120 739 c 0,13,14
 116 749 116 749 132.5 755.5 c 128,-1,15
 149 762 149 762 167 763 c 2,16,-1
 185 764 l 2,0,1
EndSplineSet
Validated: 33
EndChar

StartChar: parenleft
Encoding: 40 40 11
Width: 592
Flags: W
LayerCount: 2
Fore
SplineSet
438 777 m 1,0,1
 453 723 453 723 444 680 c 0,2,3
 441 665 441 665 435 663.5 c 128,-1,4
 429 662 429 662 418.5 667.5 c 128,-1,5
 408 673 408 673 395 676.5 c 128,-1,6
 382 680 382 680 360.5 671.5 c 128,-1,7
 339 663 339 663 315 638 c 0,8,9
 314 637 314 637 304 628 c 128,-1,10
 294 619 294 619 287 610.5 c 128,-1,11
 280 602 280 602 268 586.5 c 128,-1,12
 256 571 256 571 247 551 c 128,-1,13
 238 531 238 531 228.5 505.5 c 128,-1,14
 219 480 219 480 213.5 445.5 c 128,-1,15
 208 411 208 411 206 372 c 0,16,17
 201 268 201 268 218.5 199.5 c 128,-1,18
 236 131 236 131 260 102 c 0,19,20
 282 75 282 75 313.5 54.5 c 128,-1,21
 345 34 345 34 373.5 24 c 128,-1,22
 402 14 402 14 427.5 7 c 128,-1,23
 453 0 453 0 467.5 -3.5 c 128,-1,24
 482 -7 482 -7 481 -10 c 0,25,26
 473 -39 473 -39 454 -59 c 128,-1,27
 435 -79 435 -79 420 -84 c 2,28,-1
 406 -90 l 2,29,30
 404 -88 404 -88 391 -90.5 c 128,-1,31
 378 -93 378 -93 351.5 -86.5 c 128,-1,32
 325 -80 325 -80 297.5 -69.5 c 128,-1,33
 270 -59 270 -59 238.5 -30.5 c 128,-1,34
 207 -2 207 -2 184 39 c 0,35,36
 152 96 152 96 136 170 c 128,-1,37
 120 244 120 244 121.5 287.5 c 128,-1,38
 123 331 123 331 123 357 c 0,39,40
 126 395 126 395 157 494 c 128,-1,41
 188 593 188 593 227 651 c 0,42,43
 260 700 260 700 312.5 731.5 c 128,-1,44
 365 763 365 763 402 770 c 2,45,-1
 438 777 l 1,0,1
EndSplineSet
Validated: 33
EndChar

StartChar: parenright
Encoding: 41 41 12
Width: 592
Flags: W
LayerCount: 2
Fore
SplineSet
128 -96 m 1,0,1
 118 -41 118 -41 131 1 c 0,2,3
 135 14 135 14 140 16.5 c 128,-1,4
 145 19 145 19 151 14.5 c 128,-1,5
 157 10 157 10 167.5 6 c 128,-1,6
 178 2 178 2 190 -0.5 c 128,-1,7
 202 -3 202 -3 221.5 5 c 128,-1,8
 241 13 241 13 263 32 c 2,9,-1
 274 41 l 2,10,11
 286 50 286 50 293.5 57 c 128,-1,12
 301 64 301 64 314.5 79 c 128,-1,13
 328 94 328 94 338.5 112.5 c 128,-1,14
 349 131 349 131 360.5 155.5 c 128,-1,15
 372 180 372 180 381 214 c 128,-1,16
 390 248 390 248 395 287 c 0,17,18
 406 361 406 361 402 418.5 c 128,-1,19
 398 476 398 476 388.5 508.5 c 128,-1,20
 379 541 379 541 366 560 c 0,21,22
 346 589 346 589 316.5 612.5 c 128,-1,23
 287 636 287 636 260 648.5 c 128,-1,24
 233 661 233 661 208 670 c 128,-1,25
 183 679 183 679 169 684 c 128,-1,26
 155 689 155 689 156 692 c 0,27,28
 167 720 167 720 187.5 738 c 128,-1,29
 208 756 208 756 223 760 c 2,30,-1
 238 765 l 2,31,32
 244 765 244 765 254 764.5 c 128,-1,33
 264 764 264 764 292 756.5 c 128,-1,34
 320 749 320 749 344.5 735 c 128,-1,35
 369 721 369 721 398.5 690 c 128,-1,36
 428 659 428 659 447 616 c 0,37,38
 473 556 473 556 481.5 480.5 c 128,-1,39
 490 405 490 405 487 363.5 c 128,-1,40
 484 322 484 322 479 294 c 0,41,42
 472 256 472 256 432.5 160.5 c 128,-1,43
 393 65 393 65 349 11 c 0,44,45
 325 -18 325 -18 294 -40 c 128,-1,46
 263 -62 263 -62 235 -72 c 128,-1,47
 207 -82 207 -82 182 -88 c 128,-1,48
 157 -94 157 -94 142 -95 c 2,49,-1
 128 -96 l 1,0,1
EndSplineSet
Validated: 33
EndChar

StartChar: asterisk
Encoding: 42 42 13
Width: 702
Flags: W
LayerCount: 2
Fore
SplineSet
313 614 m 0,0,1
 317 626 317 626 335.5 626.5 c 128,-1,2
 354 627 354 627 370 622 c 2,3,-1
 386 616 l 1,4,-1
 399 410 l 1,5,-1
 490 513 l 1,6,-1
 537 474 l 1,7,-1
 423 336 l 1,8,-1
 600 330 l 1,9,-1
 600 249 l 1,10,-1
 423 255 l 1,11,-1
 561 148 l 1,12,-1
 537 93 l 1,13,-1
 380 218 l 1,14,15
 402 115 402 115 379 56 c 0,16,17
 375 45 375 45 358.5 42.5 c 128,-1,18
 342 40 342 40 328 42 c 2,19,-1
 313 45 l 1,20,-1
 298 236 l 1,21,-1
 190 78 l 1,22,-1
 142 118 l 1,23,-1
 248 262 l 1,24,-1
 118 253 l 1,25,-1
 110 373 l 1,26,-1
 276 353 l 1,27,-1
 151 522 l 1,28,-1
 190 576 l 1,29,-1
 313 406 l 1,30,31
 287 538 287 538 313 614 c 0,0,1
EndSplineSet
Validated: 33
EndChar

StartChar: plus
Encoding: 43 43 14
Width: 786
Flags: W
LayerCount: 2
Fore
SplineSet
275 588 m 1,0,-1
 269 618 l 1,1,-1
 482 618 l 1,2,-1
 488 391 l 1,3,-1
 681 375 l 1,4,-1
 695 211 l 1,5,-1
 466 195 l 1,6,-1
 486 23 l 1,7,-1
 282 16 l 1,8,-1
 271 186 l 1,9,10
 265 187 265 187 256 188.5 c 128,-1,11
 247 190 247 190 219.5 194.5 c 128,-1,12
 192 199 192 199 173.5 200.5 c 128,-1,13
 155 202 155 202 131 204 c 128,-1,14
 107 206 107 206 105 203 c 0,15,16
 95 199 95 199 90.5 251 c 128,-1,17
 86 303 86 303 86 356 c 2,18,-1
 87 410 l 1,19,-1
 271 403 l 1,20,-1
 275 588 l 1,0,-1
EndSplineSet
Validated: 33
EndChar

StartChar: comma
Encoding: 44 44 15
Width: 364
Flags: W
LayerCount: 2
Fore
SplineSet
213 233 m 2,0,1
 261 220 261 220 264 192 c 0,2,3
 265 175 265 175 255.5 152 c 128,-1,4
 246 129 246 129 236 114 c 2,5,-1
 226 99 l 1,6,-1
 120 38 l 1,7,8
 139 89 139 89 156 142 c 0,9,10
 166 173 166 173 153.5 195.5 c 128,-1,11
 141 218 141 218 141 225 c 0,12,13
 141 237 141 237 159 239 c 128,-1,14
 177 241 177 241 195 237 c 2,15,-1
 213 233 l 2,0,1
EndSplineSet
Validated: 33
EndChar

StartChar: hyphen
Encoding: 45 45 16
Width: 746
Flags: W
LayerCount: 2
Fore
SplineSet
464 202 m 1,0,-1
 105 203 l 1,1,2
 95 199 95 199 90.5 251 c 128,-1,3
 86 303 86 303 86 356 c 2,4,-1
 87 410 l 1,5,-1
 496 402 l 2,6,7
 509 402 509 402 530 400.5 c 128,-1,8
 551 399 551 399 597.5 387 c 128,-1,9
 644 375 644 375 669 353 c 0,10,11
 690 334 690 334 696.5 298.5 c 128,-1,12
 703 263 703 263 699 237 c 2,13,-1
 695 211 l 1,14,-1
 464 202 l 1,0,-1
EndSplineSet
Validated: 33
EndChar

StartChar: period
Encoding: 46 46 17
Width: 364
Flags: W
LayerCount: 2
Fore
SplineSet
223 154 m 1,0,1
 266 142 266 142 269 117 c 0,2,3
 271 102 271 102 266 79.5 c 128,-1,4
 261 57 261 57 255 42 c 2,5,-1
 249 28 l 1,6,-1
 209 11 l 1,7,8
 173 13 173 13 153 27.5 c 128,-1,9
 133 42 133 42 133 58 c 0,10,11
 131 91 131 91 132 104 c 128,-1,12
 133 117 133 117 141 138 c 0,13,14
 145 149 145 149 165.5 153 c 128,-1,15
 186 157 186 157 204 156 c 2,16,-1
 223 154 l 1,0,1
EndSplineSet
Validated: 33
EndChar

StartChar: slash
Encoding: 47 47 18
Width: 645
Flags: W
LayerCount: 2
Fore
SplineSet
472 694 m 0,0,1
 484 706 484 706 500 708 c 128,-1,2
 516 710 516 710 526 706 c 2,3,-1
 537 702 l 1,4,-1
 492 553 l 1,5,-1
 254 132 l 1,6,-1
 115 0 l 1,7,-1
 77 76 l 1,8,-1
 154 260 l 1,9,10
 172 290 172 290 203 338.5 c 128,-1,11
 234 387 234 387 318 503 c 128,-1,12
 402 619 402 619 472 694 c 0,0,1
EndSplineSet
Validated: 1
EndChar

StartChar: zero
Encoding: 48 48 19
Width: 806
Flags: W
LayerCount: 2
Fore
SplineSet
545 868 m 1,0,-1
 580 846 l 1,1,-1
 314 -56 l 1,2,-1
 279 -64 l 1,3,-1
 242 -42 l 1,4,-1
 545 868 l 1,0,-1
376 671 m 0,5,6
 346 661 346 661 312.5 628 c 128,-1,7
 279 595 279 595 260 567 c 2,8,-1
 242 539 l 1,9,10
 239 520 239 520 234 489 c 128,-1,11
 229 458 229 458 223 378.5 c 128,-1,12
 217 299 217 299 221 240 c 0,13,14
 223 216 223 216 240 193 c 128,-1,15
 257 170 257 170 273 159 c 2,16,-1
 289 148 l 2,17,18
 295 145 295 145 305.5 141.5 c 128,-1,19
 316 138 316 138 347.5 127.5 c 128,-1,20
 379 117 379 117 403 112.5 c 128,-1,21
 427 108 427 108 460.5 104.5 c 128,-1,22
 494 101 494 101 508 110 c 0,23,24
 534 120 534 120 563.5 141.5 c 128,-1,25
 593 163 593 163 610 180 c 2,26,-1
 627 196 l 1,27,28
 629 204 629 204 631.5 218.5 c 128,-1,29
 634 233 634 233 640 275 c 128,-1,30
 646 317 646 317 649.5 355 c 128,-1,31
 653 393 653 393 651.5 440.5 c 128,-1,32
 650 488 650 488 642 523 c 0,33,34
 634 554 634 554 603 587 c 128,-1,35
 572 620 572 620 545 638 c 2,36,-1
 518 655 l 2,37,38
 514 656 514 656 508 658.5 c 128,-1,39
 502 661 502 661 483.5 666 c 128,-1,40
 465 671 465 671 448.5 673.5 c 128,-1,41
 432 676 432 676 411.5 676 c 128,-1,42
 391 676 391 676 376 671 c 0,5,6
306 754 m 0,43,44
 388 789 388 789 456 786.5 c 128,-1,45
 524 784 524 784 605 746 c 0,46,47
 641 729 641 729 673.5 681 c 128,-1,48
 706 633 706 633 720 593 c 2,49,-1
 735 553 l 1,50,-1
 691 156 l 1,51,52
 686 150 686 150 677 141 c 128,-1,53
 668 132 668 132 640.5 107 c 128,-1,54
 613 82 613 82 586 62.5 c 128,-1,55
 559 43 559 43 523.5 24.5 c 128,-1,56
 488 6 488 6 458 2 c 0,57,58
 371 -11 371 -11 266.5 17.5 c 128,-1,59
 162 46 162 46 125 74 c 1,60,61
 101 108 101 108 104.5 298.5 c 128,-1,62
 108 489 108 489 121 535 c 128,-1,63
 134 581 134 581 186.5 653 c 128,-1,64
 239 725 239 725 306 754 c 0,43,44
EndSplineSet
Validated: 37
EndChar

StartChar: one
Encoding: 49 49 20
Width: 626
Flags: W
LayerCount: 2
Fore
SplineSet
95 557 m 1,0,-1
 282 745 l 1,1,-1
 466 772 l 1,2,-1
 501 745 l 1,3,-1
 407 82 l 2,4,5
 411 84 411 84 417 86.5 c 128,-1,6
 423 89 423 89 441 94 c 128,-1,7
 459 99 459 99 475 101.5 c 128,-1,8
 491 104 491 104 510 103 c 128,-1,9
 529 102 529 102 542 94 c 0,10,11
 556 86 556 86 557.5 62.5 c 128,-1,12
 559 39 559 39 554 20 c 2,13,-1
 548 0 l 1,14,15
 520 -2 520 -2 474.5 -4.5 c 128,-1,16
 429 -7 429 -7 321.5 -5 c 128,-1,17
 214 -3 214 -3 146 12 c 0,18,19
 134 17 134 17 135 33.5 c 128,-1,20
 136 50 136 50 144 68 c 2,21,-1
 151 86 l 1,22,-1
 308 92 l 1,23,-1
 312 639 l 1,24,-1
 288 635 l 1,25,-1
 95 557 l 1,0,-1
EndSplineSet
Validated: 33
EndChar

StartChar: two
Encoding: 50 50 21
Width: 821
Flags: W
LayerCount: 2
Fore
SplineSet
168 455 m 0,0,1
 141 454 141 454 136.5 496 c 128,-1,2
 132 538 132 538 150 565 c 0,3,4
 190 632 190 632 239 675.5 c 128,-1,5
 288 719 288 719 369 744 c 1,6,7
 427 757 427 757 499.5 754.5 c 128,-1,8
 572 752 572 752 634 742 c 2,9,-1
 695 731 l 1,10,11
 748 549 748 549 748 536 c 0,12,13
 748 530 748 530 735 505.5 c 128,-1,14
 722 481 722 481 708 460 c 2,15,-1
 695 438 l 1,16,-1
 253 145 l 1,17,-1
 712 236 l 1,18,19
 763 189 763 189 768 159 c 0,20,21
 772 134 772 134 763 99 c 128,-1,22
 754 64 754 64 744 41 c 2,23,-1
 733 18 l 1,24,25
 719 20 719 20 693.5 24 c 128,-1,26
 668 28 668 28 595.5 36.5 c 128,-1,27
 523 45 523 45 455.5 49.5 c 128,-1,28
 388 54 388 54 304 52.5 c 128,-1,29
 220 51 220 51 158 41 c 0,30,31
 112 34 112 34 94 74 c 128,-1,32
 76 114 76 114 93 159 c 128,-1,33
 110 204 110 204 150 207 c 0,34,35
 202 211 202 211 258 237.5 c 128,-1,36
 314 264 314 264 357 298.5 c 128,-1,37
 400 333 400 333 436 367 c 128,-1,38
 472 401 472 401 491 424 c 2,39,-1
 510 448 l 1,40,-1
 641 600 l 1,41,42
 634 602 634 602 621.5 605 c 128,-1,43
 609 608 609 608 573 615 c 128,-1,44
 537 622 537 622 503 625 c 128,-1,45
 469 628 469 628 425 626 c 128,-1,46
 381 624 381 624 347 613 c 0,47,48
 331 608 331 608 325.5 594 c 128,-1,49
 320 580 320 580 322.5 563.5 c 128,-1,50
 325 547 325 547 321 528 c 128,-1,51
 317 509 317 509 306 493.5 c 128,-1,52
 295 478 295 478 260 467 c 128,-1,53
 225 456 225 456 168 455 c 0,0,1
EndSplineSet
Validated: 33
EndChar

StartChar: three
Encoding: 51 51 22
Width: 821
Flags: W
LayerCount: 2
Fore
SplineSet
103 580 m 1,0,-1
 72 638 l 1,1,2
 85 649 85 649 106 666 c 128,-1,3
 127 683 127 683 181.5 715 c 128,-1,4
 236 747 236 747 276 756 c 0,5,6
 385 774 385 774 498 770.5 c 128,-1,7
 611 767 611 767 633 757 c 0,8,9
 647 751 647 751 698 674.5 c 128,-1,10
 749 598 749 598 749 588 c 0,11,12
 749 583 749 583 691.5 536.5 c 128,-1,13
 634 490 634 490 576 446 c 2,14,-1
 518 403 l 1,15,-1
 662 369 l 1,16,17
 740 299 740 299 751 275 c 0,18,19
 756 264 756 264 757 216 c 128,-1,20
 758 168 758 168 756 125 c 2,21,-1
 755 82 l 1,22,-1
 433 8 l 1,23,-1
 114 126 l 2,24,25
 113 128 113 128 111.5 131.5 c 128,-1,26
 110 135 110 135 106 146 c 128,-1,27
 102 157 102 157 99 167 c 128,-1,28
 96 177 96 177 93.5 189.5 c 128,-1,29
 91 202 91 202 92 211.5 c 128,-1,30
 93 221 93 221 98 229 c 128,-1,31
 103 237 103 237 112 239 c 0,32,33
 167 249 167 249 226.5 239.5 c 128,-1,34
 286 230 286 230 333 212 c 2,35,-1
 380 195 l 2,36,37
 386 193 386 193 396.5 191 c 128,-1,38
 407 189 407 189 435 183.5 c 128,-1,39
 463 178 463 178 485.5 175 c 128,-1,40
 508 172 508 172 530 172 c 128,-1,41
 552 172 552 172 559 178 c 0,42,43
 577 193 577 193 580 228.5 c 128,-1,44
 583 264 583 264 572 273 c 0,45,46
 566 279 566 279 522.5 296 c 128,-1,47
 479 313 479 313 438 326 c 2,48,-1
 398 340 l 1,49,-1
 360 395 l 1,50,51
 561 515 561 515 570 532 c 0,52,53
 577 545 577 545 577 581.5 c 128,-1,54
 577 618 577 618 570 626 c 0,55,56
 569 627 569 627 562.5 635.5 c 128,-1,57
 556 644 556 644 549.5 650.5 c 128,-1,58
 543 657 543 657 533.5 665.5 c 128,-1,59
 524 674 524 674 513 680 c 128,-1,60
 502 686 502 686 491 687 c 0,61,62
 474 689 474 689 384.5 652 c 128,-1,63
 295 615 295 615 214 576 c 2,64,-1
 134 538 l 1,65,-1
 103 580 l 1,0,-1
EndSplineSet
Validated: 33
EndChar

StartChar: four
Encoding: 52 52 23
Width: 741
Flags: W
LayerCount: 2
Fore
SplineSet
136 739 m 1,0,-1
 171 801 l 1,1,2
 182 801 182 801 199 800 c 128,-1,3
 216 799 216 799 246.5 787.5 c 128,-1,4
 277 776 277 776 282 756 c 0,5,6
 290 724 290 724 277 678 c 128,-1,7
 264 632 264 632 247 602 c 2,8,-1
 230 573 l 1,9,10
 228 561 228 561 227 542.5 c 128,-1,11
 226 524 226 524 233.5 486.5 c 128,-1,12
 241 449 241 449 261 436 c 0,13,14
 292 416 292 416 345.5 410.5 c 128,-1,15
 399 405 399 405 436 410 c 2,16,-1
 474 414 l 1,17,18
 474 440 474 440 475 482 c 128,-1,19
 476 524 476 524 492.5 619.5 c 128,-1,20
 509 715 509 715 540 770 c 0,21,22
 547 783 547 783 563.5 787.5 c 128,-1,23
 580 792 580 792 598.5 788.5 c 128,-1,24
 617 785 617 785 634.5 780.5 c 128,-1,25
 652 776 652 776 664 771 c 2,26,-1
 675 766 l 1,27,-1
 628 154 l 1,28,-1
 562 14 l 1,29,-1
 435 12 l 1,30,-1
 450 336 l 1,31,-1
 306 311 l 1,32,33
 94 391 94 391 67 426 c 0,34,35
 55 442 55 442 72 520 c 128,-1,36
 89 598 89 598 112 668 c 2,37,-1
 136 739 l 1,0,-1
EndSplineSet
Validated: 33
EndChar

StartChar: five
Encoding: 53 53 24
Width: 804
Flags: W
LayerCount: 2
Fore
SplineSet
713 587 m 0,0,1
 702 568 702 568 672 557.5 c 128,-1,2
 642 547 642 547 618 546 c 2,3,-1
 593 545 l 1,4,-1
 511 598 l 1,5,-1
 202 600 l 1,6,-1
 240 499 l 1,7,-1
 456 508 l 2,8,9
 464 507 464 507 478.5 504 c 128,-1,10
 493 501 493 501 531.5 489 c 128,-1,11
 570 477 570 477 602 462 c 128,-1,12
 634 447 634 447 666.5 421 c 128,-1,13
 699 395 699 395 712 364 c 0,14,15
 735 312 735 312 735 228 c 128,-1,16
 735 144 735 144 724 86 c 2,17,-1
 712 29 l 1,18,19
 552 -23 552 -23 505 -23 c 0,20,21
 484 -23 484 -23 379 -9.5 c 128,-1,22
 274 4 274 4 180 18 c 2,23,-1
 85 31 l 1,24,-1
 151 147 l 1,25,-1
 205 169 l 1,26,-1
 505 165 l 2,27,28
 507 168 507 168 509.5 173 c 128,-1,29
 512 178 512 178 520 194 c 128,-1,30
 528 210 528 210 534 224 c 128,-1,31
 540 238 540 238 548 258 c 128,-1,32
 556 278 556 278 559 291.5 c 128,-1,33
 562 305 562 305 563.5 320.5 c 128,-1,34
 565 336 565 336 558 340 c 0,35,36
 546 354 546 354 517.5 362.5 c 128,-1,37
 489 371 489 371 466 373 c 2,38,-1
 444 375 l 2,39,40
 419 376 419 376 380.5 378 c 128,-1,41
 342 380 342 380 270 391.5 c 128,-1,42
 198 403 198 403 182 420 c 0,43,44
 143 461 143 461 117 531 c 128,-1,45
 91 601 91 601 84 650 c 2,46,-1
 77 700 l 1,47,-1
 286 750 l 1,48,-1
 714 766 l 1,49,50
 737 631 737 631 713 587 c 0,0,1
EndSplineSet
Validated: 33
EndChar

StartChar: six
Encoding: 54 54 25
Width: 745
Flags: W
LayerCount: 2
Fore
SplineSet
225 180 m 0,0,1
 254 140 254 140 308.5 111 c 128,-1,2
 363 82 363 82 385 84 c 0,3,4
 401 85 401 85 439.5 134 c 128,-1,5
 478 183 478 183 478 199 c 0,6,7
 478 214 478 214 438.5 246 c 128,-1,8
 399 278 399 278 364 289 c 0,9,10
 333 299 333 299 303 282 c 128,-1,11
 273 265 273 265 258 247 c 0,12,13
 256 244 256 244 245 235.5 c 128,-1,14
 234 227 234 227 229 220.5 c 128,-1,15
 224 214 224 214 219.5 201.5 c 128,-1,16
 215 189 215 189 225 180 c 0,0,1
419 757 m 0,17,18
 470 766 470 766 526.5 758 c 128,-1,19
 583 750 583 750 628 736 c 2,20,-1
 673 722 l 1,21,22
 671 711 671 711 667 695 c 128,-1,23
 663 679 663 679 646.5 647.5 c 128,-1,24
 630 616 630 616 610 608 c 0,25,26
 596 602 596 602 572 616.5 c 128,-1,27
 548 631 548 631 531 648 c 2,28,-1
 514 665 l 1,29,30
 449 636 449 636 437 630 c 0,31,32
 430 626 430 626 410.5 614 c 128,-1,33
 391 602 391 602 357.5 576.5 c 128,-1,34
 324 551 324 551 293 522 c 128,-1,35
 262 493 262 493 234 453.5 c 128,-1,36
 206 414 206 414 196 376 c 0,37,38
 190 352 190 352 209 353 c 0,39,40
 223 354 223 354 297 387 c 0,41,42
 368 418 368 418 398 414 c 0,43,44
 456 406 456 406 495 389 c 128,-1,45
 534 372 534 372 562 333 c 0,46,47
 576 314 576 314 583 289.5 c 128,-1,48
 590 265 590 265 590.5 238.5 c 128,-1,49
 591 212 591 212 589.5 193 c 128,-1,50
 588 174 588 174 584.5 149 c 128,-1,51
 581 124 581 124 580 118 c 0,52,53
 577 87 577 87 532 47.5 c 128,-1,54
 487 8 487 8 432 -10 c 0,55,56
 391 -23 391 -23 350.5 -24 c 128,-1,57
 310 -25 310 -25 280 -17.5 c 128,-1,58
 250 -10 250 -10 221 3.5 c 128,-1,59
 192 17 192 17 175 29 c 128,-1,60
 158 41 158 41 142 53.5 c 128,-1,61
 126 66 126 66 123 68 c 0,62,63
 110 76 110 76 91.5 180.5 c 128,-1,64
 73 285 73 285 76 309 c 0,65,66
 89 405 89 405 113 478.5 c 128,-1,67
 137 552 137 552 154 578 c 2,68,-1
 171 604 l 2,69,70
 177 609 177 609 186.5 617.5 c 128,-1,71
 196 626 196 626 225.5 649.5 c 128,-1,72
 255 673 255 673 283.5 692 c 128,-1,73
 312 711 312 711 350 730 c 128,-1,74
 388 749 388 749 419 757 c 0,17,18
EndSplineSet
Validated: 33
EndChar

StartChar: seven
Encoding: 55 55 26
Width: 731
Flags: W
LayerCount: 2
Fore
SplineSet
54 580 m 1,0,-1
 50 691 l 1,1,-1
 93 738 l 1,2,-1
 557 793 l 2,3,4
 562 791 562 791 569.5 788 c 128,-1,5
 577 785 577 785 596.5 774.5 c 128,-1,6
 616 764 616 764 630.5 752.5 c 128,-1,7
 645 741 645 741 656.5 724.5 c 128,-1,8
 668 708 668 708 666 691 c 0,9,10
 655 570 655 570 609 401.5 c 128,-1,11
 563 233 563 233 523 124 c 2,12,-1
 483 16 l 1,13,14
 477 14 477 14 467.5 10.5 c 128,-1,15
 458 7 458 7 432.5 1 c 128,-1,16
 407 -5 407 -5 386 -6.5 c 128,-1,17
 365 -8 365 -8 345 -1 c 128,-1,18
 325 6 325 6 318 24 c 0,19,20
 314 33 314 33 334.5 82.5 c 128,-1,21
 355 132 355 132 377 178 c 2,22,-1
 399 223 l 1,23,-1
 489 606 l 1,24,-1
 466 687 l 1,25,-1
 225 667 l 1,26,-1
 222 582 l 1,27,-1
 92 527 l 1,28,-1
 54 580 l 1,0,-1
EndSplineSet
Validated: 33
EndChar

StartChar: eight
Encoding: 56 56 27
Width: 710
Flags: W
LayerCount: 2
Fore
SplineSet
464 164 m 0,0,1
 465 166 465 166 466.5 170 c 128,-1,2
 468 174 468 174 471 184 c 128,-1,3
 474 194 474 194 475.5 202 c 128,-1,4
 477 210 477 210 476.5 217.5 c 128,-1,5
 476 225 476 225 472 228 c 0,6,7
 461 235 461 235 385.5 251 c 128,-1,8
 310 267 310 267 298 264 c 0,9,10
 283 260 283 260 240 224.5 c 128,-1,11
 197 189 197 189 196 173 c 0,12,13
 196 170 196 170 192.5 148 c 128,-1,14
 189 126 189 126 188 111 c 128,-1,15
 187 96 187 96 191.5 79.5 c 128,-1,16
 196 63 196 63 208 58 c 0,17,18
 318 11 318 11 361 26 c 0,19,20
 380 33 380 33 396 54 c 128,-1,21
 412 75 412 75 431 110 c 128,-1,22
 450 145 450 145 464 164 c 0,0,1
413 488 m 1,23,-1
 458 586 l 1,24,25
 395 674 395 674 368 680 c 0,26,27
 350 688 350 688 291 682.5 c 128,-1,28
 232 677 232 677 216 655 c 0,29,30
 196 628 196 628 184.5 583.5 c 128,-1,31
 173 539 173 539 183 516 c 0,32,33
 189 502 189 502 224.5 497.5 c 128,-1,34
 260 493 260 493 321 492.5 c 128,-1,35
 382 492 382 492 413 488 c 1,23,-1
413 793 m 0,36,37
 447 793 447 793 492 774.5 c 128,-1,38
 537 756 537 756 565 738 c 2,39,-1
 593 720 l 1,40,41
 595 712 595 712 598.5 698 c 128,-1,42
 602 684 602 684 608 645.5 c 128,-1,43
 614 607 614 607 616 574 c 128,-1,44
 618 541 618 541 612 504.5 c 128,-1,45
 606 468 606 468 591 448 c 0,46,47
 573 425 573 425 532 403 c 128,-1,48
 491 381 491 381 459 370 c 2,49,-1
 427 360 l 1,50,51
 644 252 644 252 654 235 c 0,52,53
 661 223 661 223 663 177 c 128,-1,54
 665 131 665 131 646 69 c 128,-1,55
 627 7 627 7 583 -25 c 0,56,57
 541 -54 541 -54 439.5 -57.5 c 128,-1,58
 338 -61 338 -61 256 -50.5 c 128,-1,59
 174 -40 174 -40 144 -30 c 0,60,61
 110 -19 110 -19 82.5 29.5 c 128,-1,62
 55 78 55 78 56 130 c 0,63,64
 56 165 56 165 84.5 208.5 c 128,-1,65
 113 252 113 252 141 278 c 2,66,-1
 169 305 l 1,67,-1
 259 360 l 1,68,69
 173 403 173 403 159 412 c 0,70,71
 115 441 115 441 81 486.5 c 128,-1,72
 47 532 47 532 52 576 c 0,73,74
 56 612 56 612 88 659 c 128,-1,75
 120 706 120 706 150 734 c 2,76,-1
 179 763 l 2,77,78
 185 767 185 767 198.5 772 c 128,-1,79
 212 777 212 777 272 785.5 c 128,-1,80
 332 794 332 794 413 793 c 0,36,37
EndSplineSet
Validated: 33
EndChar

StartChar: nine
Encoding: 57 57 28
Width: 686
Flags: W
LayerCount: 2
Fore
SplineSet
283 659 m 0,0,1
 243 661 243 661 208 649.5 c 128,-1,2
 173 638 173 638 163 610 c 0,3,4
 152 580 152 580 163 535 c 128,-1,5
 174 490 174 490 190 460 c 2,6,-1
 207 430 l 2,7,8
 209 428 209 428 212 425.5 c 128,-1,9
 215 423 215 423 225.5 415.5 c 128,-1,10
 236 408 236 408 246.5 402 c 128,-1,11
 257 396 257 396 272 389.5 c 128,-1,12
 287 383 287 383 301.5 380 c 128,-1,13
 316 377 316 377 332.5 378.5 c 128,-1,14
 349 380 349 380 364 387 c 0,15,16
 373 392 373 392 379.5 403 c 128,-1,17
 386 414 386 414 389.5 425.5 c 128,-1,18
 393 437 393 437 398.5 458.5 c 128,-1,19
 404 480 404 480 409 494 c 0,20,21
 414 516 414 516 411 540 c 128,-1,22
 408 564 408 564 401 583 c 2,23,-1
 394 602 l 2,24,25
 393 604 393 604 391 607.5 c 128,-1,26
 389 611 389 611 380.5 620.5 c 128,-1,27
 372 630 372 630 360.5 637.5 c 128,-1,28
 349 645 349 645 328.5 651.5 c 128,-1,29
 308 658 308 658 283 659 c 0,0,1
239 287 m 1,30,31
 218 291 218 291 200 296 c 128,-1,32
 182 301 182 301 167.5 307.5 c 128,-1,33
 153 314 153 314 143 319.5 c 128,-1,34
 133 325 133 325 122.5 332.5 c 128,-1,35
 112 340 112 340 107.5 344 c 128,-1,36
 103 348 103 348 95 356 c 128,-1,37
 87 364 87 364 85 365 c 0,38,39
 72 377 72 377 64 456.5 c 128,-1,40
 56 536 56 536 56 575 c 0,41,42
 56 600 56 600 101.5 667 c 128,-1,43
 147 734 147 734 194 758 c 0,44,45
 247 784 247 784 316 783.5 c 128,-1,46
 385 783 385 783 433 758 c 0,47,48
 479 734 479 734 546 666 c 128,-1,49
 613 598 613 598 628 563 c 0,50,51
 658 491 658 491 654 393.5 c 128,-1,52
 650 296 650 296 637 222 c 128,-1,53
 624 148 624 148 617 135 c 0,54,55
 609 122 609 122 579 92.5 c 128,-1,56
 549 63 549 63 488 26 c 128,-1,57
 427 -11 427 -11 366 -20 c 0,58,59
 309 -29 309 -29 245 -19.5 c 128,-1,60
 181 -10 181 -10 146 4 c 2,61,-1
 110 18 l 1,62,-1
 142 84 l 1,63,64
 239 86 239 86 286 80 c 0,65,66
 320 76 320 76 393 98.5 c 128,-1,67
 466 121 466 121 482 139 c 0,68,69
 494 153 494 153 501.5 169 c 128,-1,70
 509 185 509 185 515.5 231 c 128,-1,71
 522 277 522 277 522 350 c 0,72,73
 522 413 522 413 512.5 448.5 c 128,-1,74
 503 484 503 484 494 488 c 2,75,-1
 484 492 l 1,76,77
 462 424 462 424 450 381 c 0,78,79
 434 326 434 326 374 303 c 0,80,81
 354 296 354 296 320.5 292 c 128,-1,82
 287 288 287 288 263 288 c 2,83,-1
 239 287 l 1,30,31
EndSplineSet
Validated: 33
EndChar

StartChar: colon
Encoding: 58 58 29
Width: 364
Flags: W
LayerCount: 2
Fore
SplineSet
232 252 m 2,0,1
 229 249 229 249 223.5 246 c 128,-1,2
 218 243 218 243 204 237.5 c 128,-1,3
 190 232 190 232 183 239 c 0,4,5
 171 245 171 245 158 259.5 c 128,-1,6
 145 274 145 274 138 285 c 2,7,-1
 131 296 l 1,8,-1
 139 332 l 1,9,10
 158 356 158 356 179 363 c 128,-1,11
 200 370 200 370 208 361 c 0,12,13
 214 357 214 357 222 351.5 c 128,-1,14
 230 346 230 346 233 344.5 c 128,-1,15
 236 343 236 343 240.5 339.5 c 128,-1,16
 245 336 245 336 247.5 333 c 128,-1,17
 250 330 250 330 253.5 326 c 128,-1,18
 257 322 257 322 261 316 c 0,19,20
 266 308 266 308 259 292 c 128,-1,21
 252 276 252 276 242 264 c 2,22,-1
 232 252 l 2,0,1
223 154 m 1,23,24
 266 142 266 142 269 117 c 0,25,26
 271 102 271 102 266 79.5 c 128,-1,27
 261 57 261 57 255 42 c 2,28,-1
 249 28 l 1,29,-1
 209 11 l 1,30,31
 173 13 173 13 153 27.5 c 128,-1,32
 133 42 133 42 133 58 c 0,33,34
 131 91 131 91 132 104 c 128,-1,35
 133 117 133 117 141 138 c 0,36,37
 145 149 145 149 165.5 153 c 128,-1,38
 186 157 186 157 204 156 c 2,39,-1
 223 154 l 1,23,24
EndSplineSet
Validated: 33
EndChar

StartChar: semicolon
Encoding: 59 59 30
Width: 364
Flags: W
LayerCount: 2
Fore
SplineSet
244 271 m 2,0,1
 241 268 241 268 236 265 c 128,-1,2
 231 262 231 262 217 256.5 c 128,-1,3
 203 251 203 251 196 258 c 0,4,5
 184 264 184 264 171 278.5 c 128,-1,6
 158 293 158 293 151 304 c 2,7,-1
 144 315 l 1,8,-1
 152 351 l 1,9,10
 171 375 171 375 192 382 c 128,-1,11
 213 389 213 389 221 380 c 0,12,13
 225 377 225 377 233 372 c 128,-1,14
 241 367 241 367 243 365.5 c 128,-1,15
 245 364 245 364 250 360.5 c 128,-1,16
 255 357 255 357 256.5 355.5 c 128,-1,17
 258 354 258 354 261.5 350.5 c 128,-1,18
 265 347 265 347 267 343.5 c 128,-1,19
 269 340 269 340 273 335 c 0,20,21
 278 327 278 327 271 311 c 128,-1,22
 264 295 264 295 254 283 c 2,23,-1
 244 271 l 2,0,1
237 178 m 1,24,25
 277 174 277 174 285 145 c 0,26,27
 292 121 292 121 274 62 c 128,-1,28
 256 3 256 3 243 -9 c 0,29,30
 234 -18 234 -18 226 -22.5 c 128,-1,31
 218 -27 218 -27 205.5 -31.5 c 128,-1,32
 193 -36 193 -36 188 -38 c 0,33,34
 132 -61 132 -61 132 -53 c 0,35,36
 132 -50 132 -50 159 -19 c 0,37,38
 199 27 199 27 169 37 c 0,39,40
 148 45 148 45 144.5 89.5 c 128,-1,41
 141 134 141 134 168 153 c 0,42,43
 177 159 177 159 194.5 165 c 128,-1,44
 212 171 212 171 224 174 c 2,45,-1
 237 178 l 1,24,25
EndSplineSet
Validated: 33
EndChar

StartChar: less
Encoding: 60 60 31
Width: 821
Flags: W
LayerCount: 2
Fore
SplineSet
701 784 m 1,0,-1
 691 684 l 1,1,-1
 263 381 l 1,2,-1
 720 43 l 1,3,-1
 656 -29 l 1,4,-1
 73 348 l 1,5,-1
 701 784 l 1,0,-1
EndSplineSet
Validated: 1
EndChar

StartChar: equal
Encoding: 61 61 32
Width: 647
Flags: W
LayerCount: 2
Fore
SplineSet
398 90 m 1,0,-1
 330 86 l 2,1,2
 263 82 263 82 192.5 78.5 c 128,-1,3
 122 75 122 75 115 75 c 0,4,5
 109 75 109 75 104.5 78 c 128,-1,6
 100 81 100 81 97 85 c 128,-1,7
 94 89 94 89 92 95 c 128,-1,8
 90 101 90 101 89 107 c 128,-1,9
 88 113 88 113 88 119.5 c 128,-1,10
 88 126 88 126 88.5 132 c 128,-1,11
 89 138 89 138 89.5 143.5 c 128,-1,12
 90 149 90 149 90.5 153 c 128,-1,13
 91 157 91 157 92 160 c 2,14,-1
 92 162 l 1,15,-1
 324 171 l 2,16,17
 327 171 327 171 332.5 171.5 c 128,-1,18
 338 172 338 172 354.5 172.5 c 128,-1,19
 371 173 371 173 387.5 173 c 128,-1,20
 404 173 404 173 426 173 c 128,-1,21
 448 173 448 173 467.5 172 c 128,-1,22
 487 171 487 171 507 169 c 128,-1,23
 527 167 527 167 542 164.5 c 128,-1,24
 557 162 557 162 567.5 157.5 c 128,-1,25
 578 153 578 153 580 147 c 0,26,27
 589 121 589 121 589 106.5 c 128,-1,28
 589 92 589 92 584 88 c 2,29,-1
 579 83 l 1,30,-1
 398 90 l 1,0,-1
391 268 m 1,31,-1
 324 264 l 2,32,33
 256 260 256 260 185.5 256.5 c 128,-1,34
 115 253 115 253 108 253 c 0,35,36
 102 253 102 253 97.5 256 c 128,-1,37
 93 259 93 259 90 263 c 128,-1,38
 87 267 87 267 85 273 c 128,-1,39
 83 279 83 279 82 285 c 128,-1,40
 81 291 81 291 81 297.5 c 128,-1,41
 81 304 81 304 81.5 310 c 128,-1,42
 82 316 82 316 82.5 321.5 c 128,-1,43
 83 327 83 327 83.5 331 c 128,-1,44
 84 335 84 335 84 338 c 2,45,-1
 85 340 l 1,46,-1
 317 349 l 2,47,48
 320 349 320 349 325.5 349.5 c 128,-1,49
 331 350 331 350 347.5 350.5 c 128,-1,50
 364 351 364 351 380.5 351 c 128,-1,51
 397 351 397 351 419.5 351 c 128,-1,52
 442 351 442 351 461.5 350.5 c 128,-1,53
 481 350 481 350 501 348 c 128,-1,54
 521 346 521 346 536 343.5 c 128,-1,55
 551 341 551 341 561.5 336.5 c 128,-1,56
 572 332 572 332 574 326 c 0,57,58
 583 300 583 300 583 285.5 c 128,-1,59
 583 271 583 271 578 266 c 2,60,-1
 573 261 l 1,61,-1
 391 268 l 1,31,-1
EndSplineSet
Validated: 1
EndChar

StartChar: greater
Encoding: 62 62 33
Width: 782
Flags: W
LayerCount: 2
Fore
SplineSet
78 797 m 1,0,-1
 707 360 l 1,1,-1
 123 -16 l 1,2,-1
 59 55 l 1,3,-1
 516 393 l 1,4,-1
 88 696 l 1,5,-1
 78 797 l 1,0,-1
EndSplineSet
Validated: 1
EndChar

StartChar: question
Encoding: 63 63 34
Width: 731
Flags: W
LayerCount: 2
Fore
SplineSet
335 33 m 0,0,1
 355 31 355 31 370 33 c 128,-1,2
 385 35 385 35 390 38 c 2,3,-1
 394 41 l 2,4,5
 396 39 396 39 398.5 34.5 c 128,-1,6
 401 30 401 30 406.5 17.5 c 128,-1,7
 412 5 412 5 415 -7 c 128,-1,8
 418 -19 418 -19 415.5 -34 c 128,-1,9
 413 -49 413 -49 404 -61 c 0,10,11
 389 -80 389 -80 364 -83 c 128,-1,12
 339 -86 339 -86 322 -80 c 2,13,-1
 304 -74 l 1,14,-1
 308 0 l 2,15,16
 308 4 308 4 309.5 9.5 c 128,-1,17
 311 15 311 15 317.5 24.5 c 128,-1,18
 324 34 324 34 335 33 c 0,0,1
271 470 m 0,19,20
 257 459 257 459 227 464 c 128,-1,21
 197 469 197 469 166 480 c 2,22,-1
 136 492 l 1,23,-1
 86 549 l 1,24,25
 89 556 89 556 94 567.5 c 128,-1,26
 99 579 99 579 115.5 610 c 128,-1,27
 132 641 132 641 149 667 c 128,-1,28
 166 693 166 693 190.5 720 c 128,-1,29
 215 747 215 747 239 759 c 0,30,31
 277 779 277 779 343 787 c 128,-1,32
 409 795 409 795 453 794 c 128,-1,33
 497 793 497 793 521 790 c 0,34,35
 585 781 585 781 624.5 752.5 c 128,-1,36
 664 724 664 724 672 661 c 0,37,38
 673 630 673 630 675 608.5 c 128,-1,39
 677 587 677 587 672 564 c 128,-1,40
 667 541 667 541 664.5 527 c 128,-1,41
 662 513 662 513 653 496.5 c 128,-1,42
 644 480 644 480 639.5 471 c 128,-1,43
 635 462 635 462 624.5 450.5 c 128,-1,44
 614 439 614 439 609.5 434 c 128,-1,45
 605 429 605 429 596 420 c 0,46,47
 590 414 590 414 544 375 c 128,-1,48
 498 336 498 336 455 294.5 c 128,-1,49
 412 253 412 253 387 217 c 0,50,51
 371 199 371 199 383.5 148 c 128,-1,52
 396 97 396 97 384 72 c 0,53,54
 377 62 377 62 363 62.5 c 128,-1,55
 349 63 349 63 335 69 c 2,56,-1
 321 75 l 1,57,58
 314 83 314 83 304.5 95.5 c 128,-1,59
 295 108 295 108 279.5 136.5 c 128,-1,60
 264 165 264 165 265 182 c 0,61,62
 265 185 265 185 266 201 c 128,-1,63
 267 217 267 217 267.5 221.5 c 128,-1,64
 268 226 268 226 269.5 240 c 128,-1,65
 271 254 271 254 272 260.5 c 128,-1,66
 273 267 273 267 275.5 279 c 128,-1,67
 278 291 278 291 280.5 298 c 128,-1,68
 283 305 283 305 286.5 315 c 128,-1,69
 290 325 290 325 295 333 c 128,-1,70
 300 341 300 341 306 348 c 0,71,72
 329 378 329 378 366 403.5 c 128,-1,73
 403 429 403 429 437 447 c 128,-1,74
 471 465 471 465 476 469 c 0,75,76
 477 470 477 470 485 476 c 128,-1,77
 493 482 493 482 498.5 486.5 c 128,-1,78
 504 491 504 491 514 500 c 128,-1,79
 524 509 524 509 530 515.5 c 128,-1,80
 536 522 536 522 545.5 533.5 c 128,-1,81
 555 545 555 545 559 553.5 c 128,-1,82
 563 562 563 562 569 574.5 c 128,-1,83
 575 587 575 587 574 597 c 128,-1,84
 573 607 573 607 572 621 c 0,85,86
 564 658 564 658 530.5 679 c 128,-1,87
 497 700 497 700 460 700 c 0,88,89
 422 700 422 700 388.5 666 c 128,-1,90
 355 632 355 632 341 598 c 2,91,-1
 327 565 l 2,92,93
 297 502 297 502 271 470 c 0,19,20
EndSplineSet
Validated: 33
EndChar

StartChar: at
Encoding: 64 64 35
Width: 792
Flags: W
LayerCount: 2
Fore
SplineSet
378 519 m 1,0,-1
 360 488 l 1,1,-1
 362 275 l 1,2,3
 421 252 421 252 444 277 c 0,4,5
 458 292 458 292 464.5 321 c 128,-1,6
 471 350 471 350 471 372 c 2,7,-1
 471 393 l 1,8,-1
 488 523 l 1,9,-1
 378 519 l 1,0,-1
433 568 m 1,10,-1
 482 592 l 1,11,-1
 479 639 l 1,12,-1
 515 639 l 1,13,-1
 546 488 l 1,14,-1
 488 262 l 2,15,16
 490 261 490 261 493.5 258.5 c 128,-1,17
 497 256 497 256 507.5 251 c 128,-1,18
 518 246 518 246 527.5 243 c 128,-1,19
 537 240 537 240 548 240.5 c 128,-1,20
 559 241 559 241 566 246 c 0,21,22
 609 278 609 278 628.5 293.5 c 128,-1,23
 648 309 648 309 668.5 341 c 128,-1,24
 689 373 689 373 690 409 c 0,25,26
 692 491 692 491 676 549 c 128,-1,27
 660 607 660 607 614 661 c 0,28,29
 580 701 580 701 535.5 711 c 128,-1,30
 491 721 491 721 429 716 c 0,31,32
 395 713 395 713 352.5 692.5 c 128,-1,33
 310 672 310 672 285 652 c 2,34,-1
 260 633 l 2,35,36
 256 630 256 630 248.5 623 c 128,-1,37
 241 616 241 616 225 582 c 128,-1,38
 209 548 209 548 200 501 c 0,39,40
 196 479 196 479 196.5 405.5 c 128,-1,41
 197 332 197 332 200 319 c 0,42,43
 213 259 213 259 230 218.5 c 128,-1,44
 247 178 247 178 258 168 c 2,45,-1
 269 157 l 1,46,-1
 646 37 l 1,47,48
 640 30 640 30 631 20 c 128,-1,49
 622 10 622 10 601.5 -5.5 c 128,-1,50
 581 -21 581 -21 570 -18 c 0,51,52
 535 -9 535 -9 482.5 -0.5 c 128,-1,53
 430 8 430 8 394.5 15 c 128,-1,54
 359 22 359 22 317.5 35 c 128,-1,55
 276 48 276 48 239.5 73 c 128,-1,56
 203 98 203 98 172 136 c 0,57,58
 138 177 138 177 119 243 c 128,-1,59
 100 309 100 309 98.5 375 c 128,-1,60
 97 441 97 441 98.5 480 c 128,-1,61
 100 519 100 519 103 541 c 0,62,63
 105 554 105 554 135.5 599 c 128,-1,64
 166 644 166 644 196 683 c 2,65,-1
 225 722 l 1,66,67
 261 755 261 755 293 769.5 c 128,-1,68
 325 784 325 784 384 788 c 128,-1,69
 443 792 443 792 526 773 c 0,70,71
 589 761 589 761 642 704 c 128,-1,72
 695 647 695 647 723 584 c 1,73,74
 736 538 736 538 726 432 c 128,-1,75
 716 326 716 326 706 299 c 0,76,77
 702 288 702 288 677 260.5 c 128,-1,78
 652 233 652 233 629 211 c 2,79,-1
 606 189 l 1,80,-1
 517 210 l 1,81,-1
 484 236 l 1,82,-1
 388 208 l 1,83,84
 381 211 381 211 370 216.5 c 128,-1,85
 359 222 359 222 338.5 239 c 128,-1,86
 318 256 318 256 313 273 c 0,87,88
 295 326 295 326 297 406.5 c 128,-1,89
 299 487 299 487 322 537 c 0,90,91
 331 556 331 556 358.5 564 c 128,-1,92
 386 572 386 572 410 570 c 2,93,-1
 433 568 l 1,10,-1
EndSplineSet
Validated: 33
EndChar

StartChar: A
Encoding: 65 65 36
Width: 909
Flags: W
LayerCount: 2
Fore
SplineSet
372 647 m 1,0,-1
 366 426 l 1,1,-1
 452 430 l 1,2,-1
 456 498 l 1,3,-1
 415 649 l 1,4,-1
 372 647 l 1,0,-1
26 156 m 1,5,-1
 237 780 l 1,6,-1
 417 805 l 1,7,-1
 690 754 l 1,8,-1
 909 168 l 1,9,-1
 819 0 l 1,10,-1
 615 14 l 1,11,-1
 433 90 l 1,12,-1
 493 166 l 1,13,-1
 466 352 l 1,14,-1
 400 338 l 1,15,-1
 452 170 l 1,16,-1
 294 27 l 1,17,-1
 216 10 l 1,18,-1
 26 156 l 1,5,-1
EndSplineSet
Validated: 1
EndChar

StartChar: B
Encoding: 66 66 37
Width: 811
Flags: W
LayerCount: 2
Fore
SplineSet
531 506 m 1,0,-1
 440 556 l 1,1,-1
 301 579 l 1,2,-1
 266 528 l 1,3,-1
 484 459 l 1,4,-1
 531 506 l 1,0,-1
269 286 m 1,5,-1
 268 183 l 1,6,-1
 371 165 l 1,7,-1
 558 200 l 1,8,-1
 535 250 l 1,9,-1
 269 286 l 1,5,-1
166 22 m 1,10,-1
 36 120 l 1,11,-1
 59 753 l 1,12,-1
 425 780 l 1,13,-1
 689 636 l 1,14,-1
 645 392 l 1,15,16
 686 385 686 385 715 352 c 0,17,18
 741 323 741 323 763 258 c 0,19,20
 773 230 773 230 776 209 c 0,21,22
 780 182 780 182 775 159 c 0,23,24
 767 124 767 124 736 95 c 0,25,26
 712 72 712 72 670 51 c 0,27,28
 630 31 630 31 576 12 c 1,29,-1
 166 22 l 1,10,-1
EndSplineSet
Validated: 33
EndChar

StartChar: C
Encoding: 67 67 38
Width: 823
Flags: W
LayerCount: 2
Fore
SplineSet
751 397 m 1,0,1
 751 397 751 397 561 423 c 1,2,-1
 534 466 l 1,3,-1
 289 479 l 1,4,-1
 245 347 l 1,5,-1
 276 310 l 1,6,-1
 603 374 l 1,7,-1
 741 323 l 1,8,-1
 761 110 l 1,9,-1
 520 20 l 1,10,-1
 163 12 l 1,11,-1
 48 195 l 1,12,13
 43 231 43 231 41 270 c 0,14,15
 36 336 36 336 37 439 c 0,16,17
 37 557 37 557 65 618 c 0,18,19
 86 667 86 667 128 708 c 0,20,21
 161 741 161 741 211 773 c 0,22,23
 232 787 232 787 253 799 c 1,24,-1
 749 741 l 1,25,26
 751 691 751 691 766 632 c 0,27,28
 787 549 787 549 788 526 c 0,29,30
 791 490 791 490 782 458 c 0,31,32
 773 424 773 424 751 397 c 1,0,1
EndSplineSet
Validated: 33
EndChar

StartChar: D
Encoding: 68 68 39
Width: 800
Flags: W
LayerCount: 2
Fore
SplineSet
467 386 m 0,0,1
 467 392 467 392 467 398 c 0,2,3
 467 432 467 432 456.5 477.5 c 128,-1,4
 446 523 446 523 435 551 c 2,5,-1
 424 580 l 1,6,-1
 291 602 l 1,7,-1
 338 142 l 1,8,-1
 427 147 l 1,9,10
 462 308 462 308 467 386 c 0,0,1
374 800 m 1,11,12
 499 796 499 796 533 785 c 0,13,14
 582 770 582 770 622 714 c 0,15,16
 635 697 635 697 650 672 c 0,17,18
 681 622 681 622 689.5 602.5 c 128,-1,19
 698 583 698 583 698 568 c 0,20,21
 698 566 698 566 698 562 c 128,-1,22
 698 558 698 558 698 555 c 0,23,24
 698 511 698 511 729 417 c 0,25,26
 732 407 732 407 748 297 c 128,-1,27
 764 187 764 187 764 168 c 0,28,29
 764 166 764 166 764 165 c 0,30,31
 744 86 744 86 673 49 c 0,32,33
 630 26 630 26 583 10 c 1,34,-1
 190 20 l 1,35,-1
 65 115 l 1,36,-1
 59 771 l 1,37,-1
 374 800 l 1,11,12
EndSplineSet
Validated: 1
EndChar

StartChar: E
Encoding: 69 69 40
Width: 907
Flags: W
LayerCount: 2
Fore
SplineSet
144 733 m 1,0,1
 249 799 249 799 322 803 c 0,2,3
 415 808 415 808 548.5 801 c 128,-1,4
 682 794 682 794 770 784 c 2,5,-1
 857 774 l 1,6,-1
 857 485 l 1,7,-1
 809 444 l 1,8,-1
 676 477 l 1,9,-1
 579 578 l 1,10,-1
 333 559 l 1,11,-1
 282 498 l 1,12,-1
 301 469 l 1,13,-1
 438 512 l 1,14,-1
 525 434 l 1,15,-1
 512 342 l 1,16,-1
 299 293 l 1,17,-1
 282 221 l 1,18,-1
 369 223 l 1,19,-1
 640 293 l 2,20,21
 652 293 652 293 671.5 291 c 128,-1,22
 691 289 691 289 742.5 270.5 c 128,-1,23
 794 252 794 252 834 219 c 0,24,25
 854 201 854 201 850 175 c 128,-1,26
 846 149 846 149 825.5 119 c 128,-1,27
 805 89 805 89 782.5 64 c 128,-1,28
 760 39 760 39 742 22 c 2,29,-1
 723 6 l 1,30,-1
 375 18 l 1,31,-1
 112 6 l 1,32,-1
 28 201 l 1,33,-1
 196 344 l 1,34,-1
 198 393 l 1,35,-1
 57 508 l 1,36,-1
 144 733 l 1,0,1
EndSplineSet
Validated: 33
EndChar

StartChar: F
Encoding: 70 70 41
Width: 808
Flags: W
LayerCount: 2
Fore
SplineSet
558 373 m 0,0,1
 592 339 592 339 518 337 c 0,2,3
 442 334 442 334 308 358 c 1,4,-1
 304 301 l 1,5,-1
 391 262 l 1,6,-1
 418 25 l 1,7,-1
 312 -14 l 1,8,-1
 184 -14 l 1,9,-1
 76 12 l 1,10,-1
 74 70 l 1,11,-1
 50 494 l 1,12,-1
 129 719 l 1,13,14
 222 784 222 784 288 788 c 0,15,16
 372 793 372 793 492.5 786 c 128,-1,17
 613 779 613 779 692 770 c 2,18,-1
 770 760 l 1,19,-1
 770 471 l 1,20,-1
 727 430 l 1,21,-1
 607 463 l 1,22,-1
 520 563 l 1,23,-1
 291 557 l 1,24,-1
 252 483 l 1,25,-1
 270 455 l 1,26,-1
 393 498 l 1,27,28
 458 471 458 471 558 373 c 0,0,1
EndSplineSet
Validated: 33
EndChar

StartChar: G
Encoding: 71 71 42
Width: 823
Flags: W
LayerCount: 2
Fore
SplineSet
722 780 m 1,0,1
 722 780 722 780 777 578 c 1,2,3
 764 581 764 581 741.5 585.5 c 128,-1,4
 719 590 719 590 656.5 594.5 c 128,-1,5
 594 599 594 599 539.5 592.5 c 128,-1,6
 485 586 485 586 424 556.5 c 128,-1,7
 363 527 363 527 327 475 c 1,8,-1
 339 252 l 1,9,10
 360 224 360 224 433.5 205 c 128,-1,11
 507 186 507 186 642 188 c 1,12,-1
 668 270 l 1,13,14
 526 250 526 250 514 272 c 0,15,16
 461 369 461 369 455 386 c 0,17,18
 442 424 442 424 476 437 c 0,19,20
 511 450 511 450 691 451 c 1,21,-1
 781 408 l 1,22,-1
 806 231 l 1,23,24
 802 215 802 215 794.5 191 c 128,-1,25
 787 167 787 167 760 117.5 c 128,-1,26
 733 68 733 68 701 49 c 0,27,28
 663 26 663 26 599.5 18.5 c 128,-1,29
 536 11 536 11 492 15 c 2,30,-1
 447 19 l 1,31,-1
 217 43 l 1,32,33
 175 55 175 55 109 149.5 c 128,-1,34
 43 244 43 244 41 270 c 0,35,36
 37 326 37 326 37 439 c 0,37,38
 37 555 37 555 65 618 c 0,39,40
 76 642 76 642 188 713 c 128,-1,41
 300 784 300 784 329 788 c 0,42,43
 442 801 442 801 529 799 c 128,-1,44
 616 797 616 797 669 788 c 2,45,-1
 722 780 l 1,0,1
EndSplineSet
Validated: 33
EndChar

StartChar: H
Encoding: 72 72 43
Width: 907
Flags: W
LayerCount: 2
Fore
SplineSet
206 774 m 1,0,-1
 376 752 l 1,1,-1
 376 420 l 1,2,-1
 509 438 l 1,3,-1
 466 762 l 1,4,-1
 566 807 l 2,5,6
 575 807 575 807 591 806 c 128,-1,7
 607 805 607 805 648.5 799 c 128,-1,8
 690 793 690 793 723.5 783.5 c 128,-1,9
 757 774 757 774 790.5 753 c 128,-1,10
 824 732 824 732 835 705 c 0,11,12
 864 635 864 635 877 546.5 c 128,-1,13
 890 458 890 458 888 381.5 c 128,-1,14
 886 305 886 305 880 238.5 c 128,-1,15
 874 172 874 172 866 133 c 2,16,-1
 859 94 l 1,17,-1
 822 18 l 1,18,-1
 605 18 l 1,19,-1
 531 100 l 1,20,-1
 517 367 l 1,21,-1
 386 340 l 1,22,-1
 437 156 l 1,23,-1
 415 51 l 1,24,-1
 140 0 l 1,25,26
 79 88 79 88 73 154 c 0,27,28
 66 251 66 251 68.5 353.5 c 128,-1,29
 71 456 71 456 77 536 c 2,30,-1
 83 616 l 1,31,-1
 206 774 l 1,0,-1
EndSplineSet
Validated: 33
EndChar

StartChar: I
Encoding: 73 73 44
Width: 798
Flags: W
LayerCount: 2
Fore
SplineSet
58 758 m 1,0,1
 231 811 231 811 344 820 c 0,2,3
 415 825 415 825 490.5 822.5 c 128,-1,4
 566 820 566 820 624 815 c 2,5,-1
 683 810 l 1,6,7
 688 796 688 796 694.5 773.5 c 128,-1,8
 701 751 701 751 709.5 697.5 c 128,-1,9
 718 644 718 644 711 609 c 0,10,11
 707 585 707 585 686 560.5 c 128,-1,12
 665 536 665 536 646 523 c 2,13,-1
 627 510 l 1,14,-1
 514 499 l 1,15,-1
 492 481 l 1,16,-1
 497 177 l 1,17,18
 503 179 503 179 513 181.5 c 128,-1,19
 523 184 523 184 554.5 190.5 c 128,-1,20
 586 197 586 197 611.5 199.5 c 128,-1,21
 637 202 637 202 674.5 204 c 128,-1,22
 712 206 712 206 734 199 c 0,23,24
 747 196 747 196 755.5 175.5 c 128,-1,25
 764 155 764 155 766 136 c 2,26,-1
 768 117 l 1,27,-1
 704 -1 l 1,28,29
 674 -4 674 -4 625 -9.5 c 128,-1,30
 576 -15 576 -15 458.5 -22.5 c 128,-1,31
 341 -30 341 -30 265 -28 c 0,32,33
 226 -27 226 -27 171 -16.5 c 128,-1,34
 116 -6 116 -6 80 4 c 2,35,-1
 44 15 l 1,36,37
 31 98 31 98 49 160 c 0,38,39
 51 167 51 167 62 171.5 c 128,-1,40
 73 176 73 176 83 176 c 2,41,-1
 93 177 l 1,42,-1
 284 162 l 1,43,-1
 293 193 l 1,44,-1
 281 497 l 1,45,-1
 267 510 l 1,46,-1
 241 485 l 2,47,48
 237 483 237 483 231 480 c 128,-1,49
 225 477 225 477 208.5 470 c 128,-1,50
 192 463 192 463 178 460.5 c 128,-1,51
 164 458 164 458 149 461 c 128,-1,52
 134 464 134 464 126 475 c 0,53,54
 99 515 99 515 82 585.5 c 128,-1,55
 65 656 65 656 62 707 c 2,56,-1
 58 758 l 1,0,1
EndSplineSet
Validated: 33
EndChar

StartChar: J
Encoding: 74 74 45
Width: 757
Flags: W
LayerCount: 2
Fore
SplineSet
99 776 m 1,0,1
 104 777 104 777 111.5 779 c 128,-1,2
 119 781 119 781 143.5 786.5 c 128,-1,3
 168 792 168 792 188 794 c 128,-1,4
 208 796 208 796 237 797.5 c 128,-1,5
 266 799 266 799 283 793 c 0,6,7
 363 775 363 775 475.5 759 c 128,-1,8
 588 743 588 743 660 736 c 2,9,-1
 733 729 l 1,10,-1
 708 595 l 1,11,12
 665 587 665 587 649 569 c 0,13,14
 641 561 641 561 636 544.5 c 128,-1,15
 631 528 631 528 630 516 c 2,16,-1
 628 504 l 1,17,-1
 625 133 l 1,18,19
 588 47 588 47 543 14 c 0,20,21
 514 -7 514 -7 468.5 -17 c 128,-1,22
 423 -27 423 -27 402 -27 c 0,23,24
 387 -27 387 -27 265 -12 c 128,-1,25
 143 3 143 3 133 9 c 0,26,27
 122 16 122 16 82 67.5 c 128,-1,28
 42 119 42 119 42 127 c 0,29,30
 42 144 42 144 44 210 c 1,31,32
 52 215 52 215 61.5 223.5 c 128,-1,33
 71 232 71 232 79.5 237.5 c 128,-1,34
 88 243 88 243 100 244 c 0,35,36
 111 245 111 245 149 228 c 128,-1,37
 187 211 187 211 220 194 c 2,38,-1
 253 177 l 2,39,40
 253 173 253 173 254.5 167 c 128,-1,41
 256 161 256 161 268 151 c 128,-1,42
 280 141 280 141 300 141 c 128,-1,43
 320 141 320 141 335.5 143 c 128,-1,44
 351 145 351 145 369.5 148.5 c 128,-1,45
 388 152 388 152 402 154 c 1,46,-1
 431 221 l 1,47,-1
 467 436 l 1,48,49
 465 451 465 451 468.5 487.5 c 128,-1,50
 472 524 472 524 468 546.5 c 128,-1,51
 464 569 464 569 444 575 c 0,52,53
 385 589 385 589 331 582 c 128,-1,54
 277 575 277 575 240 560 c 2,55,-1
 202 544 l 1,56,-1
 122 563 l 1,57,-1
 99 776 l 1,0,1
EndSplineSet
Validated: 33
EndChar

StartChar: K
Encoding: 75 75 46
Width: 825
Flags: W
LayerCount: 2
Fore
SplineSet
315 766 m 0,0,1
 355 732 355 732 366.5 657.5 c 128,-1,2
 378 583 378 583 370 525 c 2,3,-1
 362 467 l 1,4,5
 439 517 439 517 466 565 c 0,6,7
 482 593 482 593 494 637 c 128,-1,8
 506 681 506 681 510 711 c 2,9,-1
 515 741 l 1,10,-1
 735 778 l 1,11,-1
 791 729 l 1,12,-1
 735 545 l 1,13,-1
 603 432 l 1,14,-1
 454 383 l 1,15,-1
 544 356 l 1,16,-1
 637 338 l 1,17,-1
 852 205 l 1,18,-1
 862 135 l 1,19,20
 858 129 858 129 851.5 118 c 128,-1,21
 845 107 845 107 825 81.5 c 128,-1,22
 805 56 805 56 785.5 37.5 c 128,-1,23
 766 19 766 19 740 7.5 c 128,-1,24
 714 -4 714 -4 692 4 c 0,25,26
 636 23 636 23 591 67 c 128,-1,27
 546 111 546 111 518.5 156.5 c 128,-1,28
 491 202 491 202 447 260.5 c 128,-1,29
 403 319 403 319 355 358 c 0,30,31
 336 373 336 373 349 305 c 0,32,33
 354 279 354 279 354 279 c 1,34,-1
 422 61 l 1,35,-1
 395 12 l 1,36,-1
 92 35 l 1,37,-1
 47 133 l 1,38,-1
 145 301 l 1,39,-1
 143 332 l 1,40,-1
 88 354 l 1,41,-1
 49 727 l 1,42,43
 57 731 57 731 71 737 c 128,-1,44
 85 743 85 743 123 756.5 c 128,-1,45
 161 770 161 770 193.5 777 c 128,-1,46
 226 784 226 784 261 783 c 128,-1,47
 296 782 296 782 315 766 c 0,0,1
EndSplineSet
Validated: 33
EndChar

StartChar: L
Encoding: 76 76 47
Width: 759
Flags: W
LayerCount: 2
Fore
SplineSet
70 745 m 1,0,1
 86 773 86 773 172 781.5 c 128,-1,2
 258 790 258 790 336 784 c 2,3,-1
 414 778 l 1,4,5
 419 765 419 765 425 744.5 c 128,-1,6
 431 724 431 724 439 675.5 c 128,-1,7
 447 627 447 627 441 595 c 0,8,9
 437 573 437 573 417 550.5 c 128,-1,10
 397 528 397 528 379 516 c 2,11,-1
 361 505 l 1,12,-1
 252 496 l 1,13,-1
 264 211 l 1,14,-1
 469 226 l 2,15,16
 595 232 595 232 683 215 c 0,17,18
 695 212 695 212 703.5 193.5 c 128,-1,19
 712 175 712 175 714 158 c 2,20,-1
 717 140 l 1,21,-1
 655 32 l 1,22,23
 612 30 612 30 544 27 c 128,-1,24
 476 24 476 24 328 19.5 c 128,-1,25
 180 15 180 15 107 17 c 0,26,27
 83 18 83 18 71 93 c 128,-1,28
 59 168 59 168 58 275 c 128,-1,29
 57 382 57 382 59 488.5 c 128,-1,30
 61 595 61 595 66 670 c 2,31,-1
 70 745 l 1,0,1
EndSplineSet
Validated: 33
EndChar

StartChar: M
Encoding: 77 77 48
Width: 847
Flags: W
LayerCount: 2
Fore
SplineSet
736 696 m 1,0,1
 796 599 796 599 800 530 c 0,2,3
 805 443 805 443 799 317 c 128,-1,4
 793 191 793 191 784 109 c 2,5,-1
 776 27 l 1,6,-1
 516 26 l 1,7,-1
 479 70 l 1,8,-1
 508 196 l 1,9,-1
 620 435 l 1,10,-1
 580 518 l 1,11,-1
 524 566 l 1,12,-1
 498 548 l 1,13,-1
 538 420 l 1,14,-1
 468 337 l 1,15,-1
 385 349 l 1,16,-1
 339 549 l 1,17,-1
 275 565 l 1,18,-1
 277 482 l 1,19,-1
 341 229 l 2,20,21
 341 218 341 218 339.5 199.5 c 128,-1,22
 338 181 338 181 321.5 132.5 c 128,-1,23
 305 84 305 84 276 46 c 0,24,25
 253 16 253 16 193 15.5 c 128,-1,26
 133 15 133 15 84 30 c 2,27,-1
 36 44 l 1,28,-1
 51 444 l 1,29,-1
 80 723 l 1,30,-1
 255 803 l 1,31,-1
 385 646 l 1,32,-1
 430 644 l 1,33,-1
 532 778 l 1,34,-1
 736 696 l 1,0,1
EndSplineSet
Validated: 33
EndChar

StartChar: N
Encoding: 78 78 49
Width: 892
Flags: W
LayerCount: 2
Fore
SplineSet
53 161 m 1,0,-1
 57 694 l 1,1,-1
 121 783 l 1,2,-1
 283 761 l 1,3,-1
 592 267 l 1,4,-1
 616 248 l 1,5,6
 557 432 557 432 549 444 c 0,7,8
 545 450 545 450 539 488 c 128,-1,9
 533 526 533 526 530.5 577 c 128,-1,10
 528 628 528 628 541.5 684 c 128,-1,11
 555 740 555 740 586 771 c 0,12,13
 606 792 606 792 640 797.5 c 128,-1,14
 674 803 674 803 708.5 796.5 c 128,-1,15
 743 790 743 790 775 780.5 c 128,-1,16
 807 771 807 771 827 762 c 2,17,-1
 847 753 l 1,18,-1
 831 34 l 1,19,-1
 672 30 l 1,20,-1
 606 71 l 1,21,-1
 244 621 l 1,22,-1
 228 592 l 1,23,24
 242 565 242 565 264.5 520 c 128,-1,25
 287 475 287 475 331.5 365.5 c 128,-1,26
 376 256 376 256 392 181 c 0,27,28
 398 155 398 155 386 119 c 128,-1,29
 374 83 374 83 360 60 c 2,30,-1
 345 37 l 1,31,-1
 166 16 l 1,32,-1
 53 161 l 1,0,-1
EndSplineSet
Validated: 33
EndChar

StartChar: O
Encoding: 79 79 50
Width: 923
Flags: W
LayerCount: 2
Fore
SplineSet
378 510 m 1,0,1
 399 166 399 166 417 152 c 2,2,3
 417 152 417 152 482 109 c 1,4,-1
 552 143 l 1,5,-1
 509 428 l 1,6,-1
 423 516 l 1,7,-1
 378 510 l 1,0,1
284 780 m 0,8,9
 323 800 323 800 386 800.5 c 128,-1,10
 449 801 449 801 492 792 c 2,11,-1
 536 782 l 1,12,-1
 775 670 l 1,13,-1
 859 328 l 2,14,15
 858 326 858 326 857 289 c 128,-1,16
 856 252 856 252 853 211.5 c 128,-1,17
 850 171 850 171 834 122.5 c 128,-1,18
 818 74 818 74 792 45 c 0,19,20
 761 12 761 12 698 -3 c 128,-1,21
 635 -18 635 -18 588 -17 c 2,22,-1
 540 -16 l 1,23,-1
 179 37 l 1,24,25
 89 381 89 381 89 393 c 2,26,-1
 132 582 l 2,27,28
 135 588 135 588 139.5 599 c 128,-1,29
 144 610 144 610 160 639 c 128,-1,30
 176 668 176 668 193 692.5 c 128,-1,31
 210 717 210 717 235 742.5 c 128,-1,32
 260 768 260 768 284 780 c 0,8,9
EndSplineSet
Validated: 33
EndChar

StartChar: P
Encoding: 80 80 51
Width: 837
Flags: W
LayerCount: 2
Fore
SplineSet
429 582 m 1,0,-1
 462 420 l 1,1,-1
 484 418 l 1,2,-1
 507 442 l 1,3,-1
 468 627 l 1,4,-1
 447 621 l 1,5,-1
 429 582 l 1,0,-1
288 647 m 0,6,7
 307 643 307 643 325 665 c 128,-1,8
 343 687 343 687 351 711 c 2,9,-1
 359 735 l 1,10,11
 381 741 381 741 414.5 749.5 c 128,-1,12
 448 758 448 758 515 771 c 128,-1,13
 582 784 582 784 605 780 c 0,14,15
 639 775 639 775 711.5 711.5 c 128,-1,16
 784 648 784 648 796 625 c 0,17,18
 804 610 804 610 807.5 562 c 128,-1,19
 811 514 811 514 798.5 450 c 128,-1,20
 786 386 786 386 751 352 c 0,21,22
 717 318 717 318 648.5 308 c 128,-1,23
 580 298 580 298 529 304 c 2,24,-1
 478 311 l 1,25,-1
 353 309 l 1,26,-1
 413 88 l 1,27,-1
 361 18 l 1,28,29
 353 15 353 15 339.5 11 c 128,-1,30
 326 7 326 7 294.5 1.5 c 128,-1,31
 263 -4 263 -4 243 0 c 0,32,33
 217 5 217 5 182.5 22 c 128,-1,34
 148 39 148 39 126 54 c 2,35,-1
 105 68 l 1,36,-1
 81 731 l 1,37,-1
 120 766 l 1,38,-1
 273 752 l 1,39,40
 272 748 272 748 270.5 741.5 c 128,-1,41
 269 735 269 735 267 718 c 128,-1,42
 265 701 265 701 265.5 687.5 c 128,-1,43
 266 674 266 674 271.5 661.5 c 128,-1,44
 277 649 277 649 288 647 c 0,6,7
EndSplineSet
Validated: 33
EndChar

StartChar: Q
Encoding: 81 81 52
Width: 839
Flags: W
LayerCount: 2
Fore
SplineSet
336 459 m 0,0,1
 316 419 316 419 306 356 c 128,-1,2
 296 293 296 293 296 250 c 2,3,-1
 297 207 l 1,4,5
 373 149 373 149 440 127 c 0,6,7
 450 124 450 124 461.5 132.5 c 128,-1,8
 473 141 473 141 480 152 c 2,9,-1
 487 162 l 1,10,-1
 437 189 l 1,11,-1
 476 285 l 1,12,-1
 580 229 l 1,13,-1
 659 311 l 1,14,-1
 578 446 l 1,15,-1
 457 511 l 1,16,17
 446 510 446 510 429.5 507.5 c 128,-1,18
 413 505 413 505 380 492 c 128,-1,19
 347 479 347 479 336 459 c 0,0,1
563 769 m 1,20,21
 786 534 786 534 790 519 c 0,22,23
 794 503 794 503 785.5 427.5 c 128,-1,24
 777 352 777 352 757 299 c 0,25,26
 747 273 747 273 722.5 240.5 c 128,-1,27
 698 208 698 208 678 189 c 2,28,-1
 659 170 l 1,29,-1
 752 113 l 1,30,-1
 725 39 l 1,31,-1
 659 14 l 1,32,-1
 546 65 l 1,33,-1
 499 28 l 1,34,-1
 272 26 l 1,35,36
 110 180 110 180 103 192 c 0,37,38
 88 219 88 219 78 283.5 c 128,-1,39
 68 348 68 348 65 399 c 2,40,-1
 62 450 l 2,41,42
 63 458 63 458 65 471.5 c 128,-1,43
 67 485 67 485 76.5 522.5 c 128,-1,44
 86 560 86 560 98 592.5 c 128,-1,45
 110 625 110 625 131.5 661.5 c 128,-1,46
 153 698 153 698 178 719 c 0,47,48
 222 756 222 756 318.5 768.5 c 128,-1,49
 415 781 415 781 489 775 c 2,50,-1
 563 769 l 1,20,21
EndSplineSet
Validated: 33
EndChar

StartChar: R
Encoding: 82 82 53
Width: 837
Flags: W
LayerCount: 2
Fore
SplineSet
337 287 m 1,0,-1
 413 88 l 1,1,-1
 361 18 l 1,2,3
 353 15 353 15 339.5 11 c 128,-1,4
 326 7 326 7 294.5 1.5 c 128,-1,5
 263 -4 263 -4 243 0 c 0,6,7
 217 5 217 5 182.5 22 c 128,-1,8
 148 39 148 39 126 54 c 2,9,-1
 105 68 l 1,10,-1
 81 731 l 1,11,-1
 120 766 l 1,12,-1
 208 754 l 1,13,14
 207 750 207 750 205.5 743.5 c 128,-1,15
 204 737 204 737 201.5 720 c 128,-1,16
 199 703 199 703 199.5 689.5 c 128,-1,17
 200 676 200 676 205.5 663.5 c 128,-1,18
 211 651 211 651 222 649 c 0,19,20
 241 645 241 645 259 667 c 128,-1,21
 277 689 277 689 286 713 c 2,22,-1
 294 737 l 1,23,24
 310 744 310 744 335 754.5 c 128,-1,25
 360 765 360 765 412.5 782 c 128,-1,26
 465 799 465 799 488 797 c 0,27,28
 554 792 554 792 606 777.5 c 128,-1,29
 658 763 658 763 684 750 c 128,-1,30
 710 737 710 737 732 714.5 c 128,-1,31
 754 692 754 692 757.5 686 c 128,-1,32
 761 680 761 680 769 664 c 0,33,34
 777 649 777 649 780.5 601 c 128,-1,35
 784 553 784 553 771.5 489 c 128,-1,36
 759 425 759 425 724 391 c 1,37,-1
 441 338 l 1,38,-1
 583 297 l 1,39,-1
 730 287 l 2,40,41
 735 284 735 284 743.5 278 c 128,-1,42
 752 272 752 272 773.5 256 c 128,-1,43
 795 240 795 240 810 225.5 c 128,-1,44
 825 211 825 211 834.5 193.5 c 128,-1,45
 844 176 844 176 838 164 c 0,46,47
 818 126 818 126 771 85 c 128,-1,48
 724 44 724 44 687 22 c 2,49,-1
 650 0 l 1,50,-1
 593 29 l 1,51,-1
 452 215 l 1,52,-1
 337 287 l 1,0,-1
429 582 m 1,53,-1
 462 420 l 1,54,-1
 484 418 l 1,55,-1
 507 442 l 1,56,-1
 468 627 l 1,57,-1
 447 621 l 1,58,-1
 429 582 l 1,53,-1
EndSplineSet
Validated: 33
EndChar

StartChar: S
Encoding: 83 83 54
Width: 780
Flags: W
LayerCount: 2
Fore
SplineSet
664 457 m 0,0,1
 636 447 636 447 600 456.5 c 128,-1,2
 564 466 564 466 533 483 c 2,3,-1
 502 500 l 1,4,-1
 378 605 l 1,5,6
 378 605 378 605 339 583 c 1,7,8
 294 552 294 552 312 534 c 0,9,10
 374 472 374 472 477 413 c 128,-1,11
 580 354 580 354 652 326 c 2,12,-1
 723 297 l 1,13,-1
 716 108 l 1,14,15
 709 105 709 105 696.5 100 c 128,-1,16
 684 95 684 95 643.5 79.5 c 128,-1,17
 603 64 603 64 565 52.5 c 128,-1,18
 527 41 527 41 469 25 c 128,-1,19
 411 9 411 9 364 3 c 128,-1,20
 317 -3 317 -3 258 -7.5 c 128,-1,21
 199 -12 199 -12 159 -1 c 0,22,23
 122 6 122 6 97 28 c 128,-1,24
 72 50 72 50 59 86.5 c 128,-1,25
 46 123 46 123 40.5 156 c 128,-1,26
 35 189 35 189 32 236 c 0,27,28
 30 265 30 265 56 297.5 c 128,-1,29
 82 330 82 330 109 348 c 2,30,-1
 136 366 l 1,31,-1
 227 302 l 1,32,-1
 251 217 l 1,33,-1
 604 207 l 1,34,35
 600 215 600 215 591.5 228 c 128,-1,36
 583 241 583 241 552 270 c 128,-1,37
 521 299 521 299 485 315 c 0,38,39
 425 342 425 342 339.5 366.5 c 128,-1,40
 254 391 254 391 198 402 c 2,41,-1
 143 414 l 1,42,-1
 65 608 l 1,43,44
 309 786 309 786 319 789 c 2,45,-1
 566 792 l 1,46,-1
 744 626 l 1,47,48
 741 610 741 610 735 585.5 c 128,-1,49
 729 561 729 561 708 515 c 128,-1,50
 687 469 687 469 664 457 c 0,0,1
EndSplineSet
Validated: 33
EndChar

StartChar: T
Encoding: 84 84 55
Width: 688
Flags: W
LayerCount: 2
Fore
SplineSet
240 21 m 1,0,-1
 249 226 l 1,1,-1
 220 513 l 1,2,-1
 207 524 l 1,3,-1
 163 524 l 2,4,5
 160 521 160 521 156 516.5 c 128,-1,6
 152 512 152 512 139.5 501.5 c 128,-1,7
 127 491 127 491 116.5 485.5 c 128,-1,8
 106 480 106 480 93.5 480 c 128,-1,9
 81 480 81 480 74 491 c 0,10,11
 49 529 49 529 32.5 595.5 c 128,-1,12
 16 662 16 662 12 710 c 2,13,-1
 9 758 l 1,14,15
 172 807 172 807 279 816 c 0,16,17
 348 820 348 820 428.5 817.5 c 128,-1,18
 509 815 509 815 575 809 c 2,19,-1
 641 803 l 1,20,21
 646 790 646 790 652 768.5 c 128,-1,22
 658 747 658 747 666 696.5 c 128,-1,23
 674 646 674 646 668 614 c 0,24,25
 664 591 664 591 644 568 c 128,-1,26
 624 545 624 545 606 533 c 2,27,-1
 589 521 l 1,28,-1
 477 563 l 1,29,30
 480 548 480 548 485 521.5 c 128,-1,31
 490 495 490 495 500 421 c 128,-1,32
 510 347 510 347 513.5 282 c 128,-1,33
 517 217 517 217 510 143.5 c 128,-1,34
 503 70 503 70 482 25 c 0,35,36
 466 -9 466 -9 405.5 -10 c 128,-1,37
 345 -11 345 -11 292 5 c 2,38,-1
 240 21 l 1,0,-1
EndSplineSet
Validated: 33
EndChar

StartChar: U
Encoding: 85 85 56
Width: 751
Flags: W
LayerCount: 2
Fore
SplineSet
261 643 m 1,0,1
 261 643 261 643 347 158 c 1,2,3
 350 159 350 159 365.5 157.5 c 128,-1,4
 381 156 381 156 400.5 162 c 128,-1,5
 420 168 420 168 423 182 c 0,6,7
 437 250 437 250 440.5 349.5 c 128,-1,8
 444 449 444 449 440 514 c 2,9,-1
 437 580 l 1,10,-1
 479 801 l 1,11,-1
 625 788 l 1,12,13
 632 766 632 766 641.5 731 c 128,-1,14
 651 696 651 696 667 610.5 c 128,-1,15
 683 525 683 525 681 469 c 0,16,17
 680 452 680 452 679 402 c 128,-1,18
 678 352 678 352 677 336 c 128,-1,19
 676 320 676 320 673 280 c 128,-1,20
 670 240 670 240 665 220 c 128,-1,21
 660 200 660 200 651.5 167.5 c 128,-1,22
 643 135 643 135 630.5 107.5 c 128,-1,23
 618 80 618 80 601 51 c 128,-1,24
 584 22 584 22 539.5 13.5 c 128,-1,25
 495 5 495 5 458 12 c 2,26,-1
 422 18 l 1,27,-1
 176 61 l 1,28,29
 164 80 164 80 146.5 111.5 c 128,-1,30
 129 143 129 143 96.5 221 c 128,-1,31
 64 299 64 299 58 354 c 0,32,33
 50 426 50 426 59.5 529.5 c 128,-1,34
 69 633 69 633 82 700 c 2,35,-1
 96 768 l 1,36,37
 106 771 106 771 121.5 774 c 128,-1,38
 137 777 137 777 172 775.5 c 128,-1,39
 207 774 207 774 226 760 c 0,40,41
 242 748 242 748 251 719 c 128,-1,42
 260 690 260 690 260 666 c 2,43,-1
 261 643 l 1,0,1
EndSplineSet
Validated: 33
EndChar

StartChar: V
Encoding: 86 86 57
Width: 829
Flags: W
LayerCount: 2
Fore
SplineSet
46 588 m 0,0,1
 33 630 33 630 38 676.5 c 128,-1,2
 43 723 43 723 55 760 c 2,3,-1
 67 797 l 1,4,-1
 218 774 l 1,5,-1
 339 580 l 1,6,-1
 407 145 l 1,7,-1
 548 770 l 1,8,-1
 683 786 l 1,9,10
 689 781 689 781 699 771.5 c 128,-1,11
 709 762 709 762 733 734.5 c 128,-1,12
 757 707 757 707 774 680.5 c 128,-1,13
 791 654 791 654 801 620.5 c 128,-1,14
 811 587 811 587 802 561 c 0,15,16
 780 492 780 492 733.5 410.5 c 128,-1,17
 687 329 687 329 636.5 261.5 c 128,-1,18
 586 194 586 194 539 136.5 c 128,-1,19
 492 79 492 79 462 46 c 2,20,-1
 431 14 l 1,21,-1
 368 20 l 1,22,23
 342 57 342 57 301.5 118.5 c 128,-1,24
 261 180 261 180 174 331 c 128,-1,25
 87 482 87 482 46 588 c 0,0,1
EndSplineSet
Validated: 33
EndChar

StartChar: W
Encoding: 87 87 58
Width: 962
Flags: W
LayerCount: 2
Fore
SplineSet
38 590 m 0,0,1
 35 634 35 634 68 687.5 c 128,-1,2
 101 741 101 741 135 773 c 2,3,-1
 169 805 l 1,4,-1
 290 764 l 1,5,6
 289 749 289 749 287.5 724.5 c 128,-1,7
 286 700 286 700 283.5 629.5 c 128,-1,8
 281 559 281 559 285 516 c 0,9,10
 288 471 288 471 308 408 c 128,-1,11
 328 345 328 345 346 304 c 2,12,-1
 365 264 l 1,13,-1
 497 436 l 1,14,15
 497 436 497 436 540 349 c 0,16,17
 625 192 625 192 645 266 c 0,18,19
 661 330 661 330 661 398 c 128,-1,20
 661 466 661 466 649.5 531.5 c 128,-1,21
 638 597 638 597 624 649 c 128,-1,22
 610 701 610 701 598 732 c 2,23,-1
 587 764 l 1,24,25
 600 769 600 769 621 776.5 c 128,-1,26
 642 784 642 784 692.5 793.5 c 128,-1,27
 743 803 743 803 776 797 c 0,28,29
 808 791 808 791 847 766.5 c 128,-1,30
 886 742 886 742 909 720 c 2,31,-1
 932 698 l 1,32,33
 878 457 878 457 816 287 c 0,34,35
 796 234 796 234 756.5 162 c 128,-1,36
 717 90 717 90 688 45 c 2,37,-1
 658 0 l 1,38,-1
 476 242 l 1,39,-1
 312 14 l 1,40,-1
 214 41 l 1,41,42
 207 54 207 54 196 77.5 c 128,-1,43
 185 101 185 101 156.5 169 c 128,-1,44
 128 237 128 237 105 301 c 128,-1,45
 82 365 82 365 62 446 c 128,-1,46
 42 527 42 527 38 590 c 0,0,1
EndSplineSet
Validated: 33
EndChar

StartChar: X
Encoding: 88 88 59
Width: 847
Flags: W
LayerCount: 2
Fore
SplineSet
218 750 m 1,0,-1
 311 689 l 1,1,2
 311 689 311 689 360 480 c 0,3,4
 372 417 372 417 370 409 c 0,5,6
 367 400 367 400 425 489.5 c 128,-1,7
 483 579 483 579 542 672 c 2,8,-1
 602 766 l 1,9,-1
 751 737 l 1,10,11
 756 724 756 724 761.5 703.5 c 128,-1,12
 767 683 767 683 768.5 638.5 c 128,-1,13
 770 594 770 594 751 571 c 0,14,15
 707 518 707 518 635.5 464.5 c 128,-1,16
 564 411 564 411 515 384 c 2,17,-1
 466 357 l 1,18,-1
 840 322 l 1,19,-1
 831 191 l 1,20,-1
 642 51 l 1,21,22
 552 68 552 68 513 106 c 0,23,24
 481 137 481 137 446 182 c 128,-1,25
 411 227 411 227 392 257 c 2,26,-1
 372 287 l 1,27,-1
 258 -4 l 1,28,-1
 54 86 l 2,29,30
 53 88 53 88 51 91 c 128,-1,31
 49 94 49 94 44.5 102.5 c 128,-1,32
 40 111 40 111 38 118.5 c 128,-1,33
 36 126 36 126 36 134 c 128,-1,34
 36 142 36 142 41 147 c 0,35,36
 82 188 82 188 142.5 239 c 128,-1,37
 203 290 203 290 243 320 c 2,38,-1
 283 351 l 1,39,-1
 65 569 l 1,40,-1
 77 617 l 1,41,-1
 218 750 l 1,0,-1
EndSplineSet
Validated: 33
EndChar

StartChar: Y
Encoding: 89 89 60
Width: 858
Flags: W
LayerCount: 2
Fore
SplineSet
161 774 m 1,0,1
 176 776 176 776 198.5 777 c 128,-1,2
 221 778 221 778 265.5 767.5 c 128,-1,3
 310 757 310 757 323 731 c 0,4,5
 352 675 352 675 370 587.5 c 128,-1,6
 388 500 388 500 391 440 c 2,7,-1
 394 381 l 1,8,-1
 429 344 l 1,9,-1
 558 696 l 1,10,-1
 638 793 l 1,11,-1
 822 780 l 1,12,-1
 835 629 l 1,13,-1
 486 313 l 1,14,-1
 536 102 l 1,15,-1
 617 53 l 1,16,-1
 603 0 l 1,17,-1
 286 0 l 1,18,-1
 271 53 l 1,19,20
 281 61 281 61 296.5 74.5 c 128,-1,21
 312 88 312 88 340.5 122 c 128,-1,22
 369 156 369 156 374 180 c 0,23,24
 378 198 378 198 374 225 c 128,-1,25
 370 252 370 252 364 270 c 2,26,-1
 357 287 l 1,27,-1
 71 496 l 1,28,-1
 30 627 l 1,29,-1
 161 774 l 1,0,1
EndSplineSet
Validated: 33
EndChar

StartChar: Z
Encoding: 90 90 61
Width: 761
Flags: W
LayerCount: 2
Fore
SplineSet
156 749 m 1,0,-1
 632 772 l 1,1,-1
 712 715 l 1,2,-1
 668 570 l 1,3,-1
 239 217 l 1,4,-1
 222 196 l 1,5,6
 407 318 407 318 417 325 c 0,7,8
 426 331 426 331 477 339 c 128,-1,9
 528 347 528 347 599.5 339.5 c 128,-1,10
 671 332 671 332 708 297 c 0,11,12
 727 279 727 279 732.5 243.5 c 128,-1,13
 738 208 738 208 732.5 170.5 c 128,-1,14
 727 133 727 133 719 97.5 c 128,-1,15
 711 62 711 62 703 39 c 2,16,-1
 695 16 l 1,17,-1
 50 61 l 1,18,-1
 50 208 l 1,19,-1
 86 268 l 1,20,-1
 541 631 l 1,21,-1
 441 653 l 1,22,23
 437 647 437 647 428.5 636.5 c 128,-1,24
 420 626 420 626 393 597.5 c 128,-1,25
 366 569 366 569 337.5 545 c 128,-1,26
 309 521 309 521 266 497 c 128,-1,27
 223 473 223 473 181 463 c 0,28,29
 158 458 158 458 126 467.5 c 128,-1,30
 94 477 94 477 73 490 c 2,31,-1
 52 502 l 1,32,-1
 30 663 l 1,33,-1
 156 749 l 1,0,-1
EndSplineSet
Validated: 33
EndChar

StartChar: bracketleft
Encoding: 91 91 62
Width: 696
Flags: W
LayerCount: 2
Fore
SplineSet
542 782 m 1,0,-1
 525 653 l 1,1,2
 181 651 181 651 167 649 c 1,3,4
 161 632 161 632 164 538.5 c 128,-1,5
 167 445 167 445 173 336 c 2,6,-1
 179 227 l 1,7,-1
 542 195 l 1,8,-1
 548 29 l 1,9,-1
 89 61 l 1,10,-1
 105 741 l 1,11,-1
 542 782 l 1,0,-1
EndSplineSet
Validated: 33
EndChar

StartChar: backslash
Encoding: 92 92 63
Width: 645
Flags: W
LayerCount: 2
Fore
SplineSet
486 83 m 0,0,1
 416 158 416 158 336.5 266.5 c 128,-1,2
 257 375 257 375 212 446 c 2,3,-1
 168 517 l 1,4,-1
 91 701 l 1,5,-1
 129 777 l 1,6,-1
 268 645 l 1,7,-1
 506 224 l 1,8,-1
 551 75 l 1,9,10
 512 55 512 55 486 83 c 0,0,1
EndSplineSet
Validated: 33
EndChar

StartChar: bracketright
Encoding: 93 93 64
Width: 696
Flags: W
LayerCount: 2
Fore
SplineSet
111 784 m 1,0,-1
 547 743 l 1,1,-1
 563 63 l 1,2,-1
 104 31 l 1,3,-1
 111 197 l 1,4,-1
 473 229 l 1,5,6
 473 229 473 229 488 529 c 0,7,8
 492 650 492 650 485 651 c 2,9,-1
 127 655 l 1,10,-1
 111 784 l 1,0,-1
EndSplineSet
Validated: 33
EndChar

StartChar: underscore
Encoding: 95 95 65
Width: 746
Flags: W
LayerCount: 2
Fore
SplineSet
455 -25 m 1,0,-1
 96 -24 l 2,1,2
 90 -26 90 -26 83.5 -15.5 c 128,-1,3
 77 -5 77 -5 72.5 12 c 128,-1,4
 68 29 68 29 64.5 46 c 128,-1,5
 61 63 61 63 60 76 c 2,6,-1
 58 88 l 1,7,-1
 467 81 l 2,8,9
 475 80 475 80 508.5 82 c 128,-1,10
 542 84 542 84 596 73.5 c 128,-1,11
 650 63 650 63 675 41 c 0,12,13
 688 29 688 29 694.5 19 c 128,-1,14
 701 9 701 9 700 3 c 128,-1,15
 699 -3 699 -3 696 -7.5 c 128,-1,16
 693 -12 693 -12 690 -14 c 2,17,-1
 686 -15 l 1,18,-1
 455 -25 l 1,0,-1
EndSplineSet
Validated: 33
EndChar

StartChar: a
Encoding: 97 97 66
Width: 929
Flags: WO
LayerCount: 2
Fore
SplineSet
85.5 35 m 24,0,1
 -5 264 -5 264 107 548 c 0,2,3
 176 723 176 723 291 744 c 2,4,-1
 561 794 l 0,5,-1
 765 636 l 0,6,-1
 833 486 l 0,7,-1
 909 168 l 1,8,-1
 819 0 l 1,9,-1
 615 14 l 1,10,-1
 462 82 l 1,11,-1
 493 166 l 1,12,-1
 543 370 l 1,13,-1
 400 338 l 1,14,-1
 452 170 l 1,15,-1
 294 27 l 1,16,-1
 90 26 l 2,17,18
 89 26 89 26 85.5 35 c 0,19,-1
 85.5 35 l 24,0,1
372 647 m 1,20,-1
 366 426 l 1,21,-1
 519 442 l 1,22,-1
 492 508 l 1,23,-1
 425 656 l 1,24,-1
 372 647 l 1,20,-1
EndSplineSet
EndChar

StartChar: b
Encoding: 98 98 67
Width: 811
Flags: W
LayerCount: 2
Fore
SplineSet
566 494 m 1,0,1
 587 514 587 514 576.5 542 c 128,-1,2
 566 570 566 570 532 594.5 c 128,-1,3
 498 619 498 619 468 616 c 0,4,5
 430 613 430 613 388.5 603.5 c 128,-1,6
 347 594 347 594 324 586 c 2,7,-1
 301 579 l 2,8,9
 300 576 300 576 298.5 571 c 128,-1,10
 297 566 297 566 294 552.5 c 128,-1,11
 291 539 291 539 290 528 c 128,-1,12
 289 517 289 517 290.5 506.5 c 128,-1,13
 292 496 292 496 298 492 c 0,14,15
 331 470 331 470 378.5 461.5 c 128,-1,16
 426 453 426 453 457 456 c 2,17,-1
 488 458 l 1,18,-1
 566 494 l 1,0,1
269 286 m 1,19,-1
 340 177 l 1,20,-1
 443 159 l 1,21,-1
 558 200 l 1,22,23
 559 205 559 205 559.5 212 c 128,-1,24
 560 219 560 219 560.5 237 c 128,-1,25
 561 255 561 255 558.5 270 c 128,-1,26
 556 285 556 285 548.5 298.5 c 128,-1,27
 541 312 541 312 528 316 c 0,28,29
 475 328 475 328 417.5 321 c 128,-1,30
 360 314 360 314 314 300 c 2,31,-1
 269 286 l 1,19,-1
750 271 m 0,32,33
 756 192 756 192 728.5 119.5 c 128,-1,34
 701 47 701 47 678 35 c 0,35,36
 667 29 667 29 637.5 9.5 c 128,-1,37
 608 -10 608 -10 590 -16 c 1,38,-1
 174 6 l 1,39,-1
 96 100 l 1,40,41
 94 114 94 114 90.5 139 c 128,-1,42
 87 164 87 164 80.5 237.5 c 128,-1,43
 74 311 74 311 71 380 c 128,-1,44
 68 449 68 449 71.5 538.5 c 128,-1,45
 75 628 75 628 88 698 c 0,46,47
 95 736 95 736 162 765.5 c 128,-1,48
 229 795 229 795 317 803.5 c 128,-1,49
 405 812 405 812 494 800 c 0,50,51
 597 783 597 783 663.5 746.5 c 128,-1,52
 730 710 730 710 760 634 c 0,53,54
 771 603 771 603 764.5 568.5 c 128,-1,55
 758 534 758 534 739.5 499.5 c 128,-1,56
 721 465 721 465 702 437.5 c 128,-1,57
 683 410 683 410 668 393 c 2,58,-1
 653 376 l 1,59,60
 674 372 674 372 711.5 332.5 c 128,-1,61
 749 293 749 293 750 271 c 0,32,33
EndSplineSet
Validated: 33
EndChar

StartChar: c
Encoding: 99 99 68
Width: 823
Flags: W
LayerCount: 2
Fore
SplineSet
144 741 m 1,0,1
 244 754 244 754 330.5 759.5 c 128,-1,2
 417 765 417 765 477.5 763 c 128,-1,3
 538 761 538 761 587 754 c 128,-1,4
 636 747 636 747 665.5 737.5 c 128,-1,5
 695 728 695 728 716 717 c 128,-1,6
 737 706 737 706 745.5 697.5 c 128,-1,7
 754 689 754 689 756 682 c 0,8,9
 777 617 777 617 778 599 c 0,10,11
 781 571 781 571 773 546 c 0,12,13
 764 519 764 519 743 498 c 1,14,-1
 560 518 l 1,15,-1
 534 552 l 1,16,-1
 299 562 l 1,17,-1
 245 347 l 1,18,-1
 276 310 l 1,19,-1
 603 374 l 1,20,21
 603 374 603 374 663 326 c 0,22,23
 816 193 816 193 777 130 c 0,24,25
 772 122 772 122 764 116 c 0,26,27
 712 74 712 74 631.5 47.5 c 128,-1,28
 551 21 551 21 472 14 c 128,-1,29
 393 7 393 7 322 5.5 c 128,-1,30
 251 4 251 4 207 8 c 2,31,-1
 163 12 l 1,32,-1
 48 195 l 1,33,34
 43 231 43 231 41 270 c 0,35,36
 38 302 38 302 47.5 409.5 c 128,-1,37
 57 517 57 517 57 531 c 0,38,39
 57 623 57 623 83 671 c 0,40,41
 104 709 104 709 144 741 c 1,0,1
EndSplineSet
Validated: 33
EndChar

StartChar: d
Encoding: 100 100 69
Width: 800
Flags: W
LayerCount: 2
Fore
SplineSet
505 391 m 0,0,1
 505 397 505 397 505 403 c 0,2,3
 505 407 505 407 505.5 427 c 128,-1,4
 506 447 506 447 505.5 451 c 128,-1,5
 505 455 505 455 504.5 471.5 c 128,-1,6
 504 488 504 488 503 493 c 128,-1,7
 502 498 502 498 500 511 c 128,-1,8
 498 524 498 524 494.5 530.5 c 128,-1,9
 491 537 491 537 486.5 548 c 128,-1,10
 482 559 482 559 476 567.5 c 128,-1,11
 470 576 470 576 462 585 c 0,12,13
 434 618 434 618 367.5 628 c 128,-1,14
 301 638 301 638 291 602 c 0,15,16
 278 537 278 537 275.5 482 c 128,-1,17
 273 427 273 427 282.5 368 c 128,-1,18
 292 309 292 309 303.5 264 c 128,-1,19
 315 219 315 219 338 142 c 0,20,21
 346 118 346 118 399.5 123 c 128,-1,22
 453 128 453 128 465 152 c 0,23,24
 480 182 480 182 489 216 c 128,-1,25
 498 250 498 250 500 271.5 c 128,-1,26
 502 293 502 293 503 334.5 c 128,-1,27
 504 376 504 376 505 391 c 0,0,1
650 672 m 0,28,29
 741 524 741 524 761 235 c 0,30,31
 764 192 764 192 764 168 c 0,32,33
 764 166 764 166 764 165 c 0,34,35
 744 86 744 86 673 49 c 0,36,37
 630 26 630 26 583 10 c 1,38,-1
 190 20 l 1,39,-1
 65 115 l 1,40,-1
 59 771 l 1,41,-1
 374 800 l 1,42,43
 501 796 501 796 552 772 c 128,-1,44
 603 748 603 748 650 672 c 0,28,29
EndSplineSet
Validated: 33
EndChar

StartChar: e
Encoding: 101 101 70
Width: 907
Flags: W
LayerCount: 2
Fore
SplineSet
154 684 m 2,0,1
 165 691 165 691 183 700.5 c 128,-1,2
 201 710 201 710 244.5 727 c 128,-1,3
 288 744 288 744 318 746 c 0,4,5
 403 750 403 750 526 744 c 128,-1,6
 649 738 649 738 730 729 c 2,7,-1
 810 720 l 1,8,9
 825 564 825 564 810 466 c 0,10,11
 808 456 808 456 797 447 c 128,-1,12
 786 438 786 438 776 434 c 2,13,-1
 766 430 l 1,14,-1
 643 459 l 2,15,16
 642 462 642 462 639 467 c 128,-1,17
 636 472 636 472 626.5 486 c 128,-1,18
 617 500 617 500 607 511.5 c 128,-1,19
 597 523 597 523 582.5 533.5 c 128,-1,20
 568 544 568 544 554 548 c 0,21,22
 507 556 507 556 457 552 c 128,-1,23
 407 548 407 548 367 540 c 2,24,-1
 328 531 l 1,25,-1
 281 477 l 1,26,-1
 298 452 l 1,27,28
 307 457 307 457 321 464.5 c 128,-1,29
 335 472 335 472 368.5 482.5 c 128,-1,30
 402 493 402 493 424 490 c 0,31,32
 477 482 477 482 505 421 c 0,33,34
 531 362 531 362 493 340 c 0,35,36
 463 322 463 322 414 311.5 c 128,-1,37
 365 301 365 301 331 299 c 2,38,-1
 297 297 l 1,39,-1
 281 233 l 1,40,-1
 361 235 l 1,41,-1
 610 297 l 2,42,43
 614 297 614 297 621 296.5 c 128,-1,44
 628 296 628 296 649 292.5 c 128,-1,45
 670 289 670 289 690.5 283 c 128,-1,46
 711 277 711 277 738.5 263.5 c 128,-1,47
 766 250 766 250 789 232 c 0,48,49
 807 215 807 215 803.5 192.5 c 128,-1,50
 800 170 800 170 781 144 c 128,-1,51
 762 118 762 118 741 95.5 c 128,-1,52
 720 73 720 73 704 59 c 2,53,-1
 687 44 l 1,54,-1
 367 55 l 1,55,-1
 125 44 l 1,56,57
 121 48 121 48 114.5 55.5 c 128,-1,58
 108 63 108 63 92.5 84 c 128,-1,59
 77 105 77 105 66 125 c 128,-1,60
 55 145 55 145 48.5 170.5 c 128,-1,61
 42 196 42 196 47 216 c 0,62,63
 54 241 54 241 72.5 259 c 128,-1,64
 91 277 91 277 111.5 285.5 c 128,-1,65
 132 294 132 294 158.5 309 c 128,-1,66
 185 324 185 324 202 342 c 0,67,68
 211 351 211 351 211.5 363 c 128,-1,69
 212 375 212 375 204 385 c 0,70,71
 190 400 190 400 167.5 412 c 128,-1,72
 145 424 145 424 126.5 430.5 c 128,-1,73
 108 437 108 437 92.5 451 c 128,-1,74
 77 465 77 465 74 486 c 0,75,76
 70 509 70 509 77 538 c 128,-1,77
 84 567 84 567 96.5 591.5 c 128,-1,78
 109 616 109 616 122 637.5 c 128,-1,79
 135 659 135 659 144 672 c 2,80,-1
 154 684 l 2,0,1
EndSplineSet
Validated: 33
EndChar

StartChar: f
Encoding: 102 102 71
Width: 808
Flags: W
LayerCount: 2
Fore
SplineSet
558 373 m 0,0,1
 592 339 592 339 518 337 c 0,2,3
 442 334 442 334 308 358 c 1,4,-1
 304 301 l 1,5,-1
 397 182 l 1,6,-1
 418 25 l 1,7,-1
 312 -14 l 1,8,-1
 184 -14 l 1,9,-1
 76 12 l 1,10,-1
 74 70 l 1,11,-1
 50 494 l 1,12,-1
 101 728 l 1,13,14
 194 793 194 793 260 797 c 0,15,16
 344 802 344 802 471.5 793 c 128,-1,17
 599 784 599 784 684 772 c 2,18,-1
 770 760 l 1,19,-1
 770 471 l 1,20,-1
 727 430 l 1,21,-1
 601 468 l 1,22,-1
 517 600 l 1,23,-1
 268 592 l 1,24,-1
 226 486 l 1,25,-1
 244 458 l 1,26,-1
 445 490 l 1,27,28
 459 471 459 471 558 373 c 0,0,1
EndSplineSet
Validated: 33
EndChar

StartChar: g
Encoding: 103 103 72
Width: 807
Flags: W
LayerCount: 2
Fore
SplineSet
672 762 m 0,0,1
 692 760 692 760 703.5 732 c 128,-1,2
 715 704 715 704 717 666.5 c 128,-1,3
 719 629 719 629 718 591.5 c 128,-1,4
 717 554 717 554 714 527 c 2,5,-1
 711 501 l 1,6,7
 703 506 703 506 690.5 512.5 c 128,-1,8
 678 519 678 519 639.5 535.5 c 128,-1,9
 601 552 601 552 564.5 564.5 c 128,-1,10
 528 577 528 577 479 586 c 128,-1,11
 430 595 430 595 390 592.5 c 128,-1,12
 350 590 350 590 311.5 571 c 128,-1,13
 273 552 273 552 250 515 c 0,14,15
 245 508 245 508 238.5 496 c 128,-1,16
 232 484 232 484 218 450.5 c 128,-1,17
 204 417 204 417 196 388 c 128,-1,18
 188 359 188 359 190.5 327.5 c 128,-1,19
 193 296 193 296 210 279 c 0,20,21
 267 225 267 225 325 203 c 128,-1,22
 383 181 383 181 447 181 c 128,-1,23
 511 181 511 181 600 182 c 1,24,-1
 623 262 l 1,25,26
 388 313 388 313 378 335 c 0,27,28
 347 396 347 396 347.5 420 c 128,-1,29
 348 444 348 444 379 448.5 c 128,-1,30
 410 453 410 453 473 446 c 0,31,32
 575 439 575 439 644 440 c 0,33,34
 647 439 647 439 652.5 437 c 128,-1,35
 658 435 658 435 672 428.5 c 128,-1,36
 686 422 686 422 698 415 c 128,-1,37
 710 408 710 408 722.5 396 c 128,-1,38
 735 384 735 384 741 372 c 0,39,40
 752 349 752 349 753 312 c 128,-1,41
 754 275 754 275 750 250 c 2,42,-1
 746 224 l 2,43,44
 745 219 745 219 742.5 209.5 c 128,-1,45
 740 200 740 200 731.5 174 c 128,-1,46
 723 148 723 148 713 126 c 128,-1,47
 703 104 703 104 687 80.5 c 128,-1,48
 671 57 671 57 653 46 c 0,49,50
 619 24 619 24 562.5 16.5 c 128,-1,51
 506 9 506 9 466 13 c 2,52,-1
 427 16 l 1,53,-1
 222 40 l 1,54,55
 198 48 198 48 188 51 c 128,-1,56
 178 54 178 54 157.5 64 c 128,-1,57
 137 74 137 74 125.5 84.5 c 128,-1,58
 114 95 114 95 99.5 114.5 c 128,-1,59
 85 134 85 134 74 158 c 0,60,61
 66 176 66 176 62.5 215.5 c 128,-1,62
 59 255 59 255 59 289.5 c 128,-1,63
 59 324 59 324 60.5 371 c 128,-1,64
 62 418 62 418 62 428 c 0,65,66
 62 541 62 541 87 603 c 0,67,68
 97 630 97 630 164.5 698 c 128,-1,69
 232 766 232 766 255 770 c 0,70,71
 303 777 303 777 344 780.5 c 128,-1,72
 385 784 385 784 412 785 c 128,-1,73
 439 786 439 786 476.5 783.5 c 128,-1,74
 514 781 514 781 532 779.5 c 128,-1,75
 550 778 550 778 598.5 771.5 c 128,-1,76
 647 765 647 765 672 762 c 0,0,1
EndSplineSet
Validated: 33
EndChar

StartChar: h
Encoding: 104 104 73
Width: 907
Flags: W
LayerCount: 2
Fore
SplineSet
206 774 m 1,0,-1
 376 752 l 1,1,2
 374 745 374 745 370.5 732.5 c 128,-1,3
 367 720 367 720 361 685 c 128,-1,4
 355 650 355 650 352.5 618.5 c 128,-1,5
 350 587 350 587 354.5 549.5 c 128,-1,6
 359 512 359 512 372 486 c 0,7,8
 390 452 390 452 441 459 c 128,-1,9
 492 466 492 466 505 504 c 0,10,11
 518 556 518 556 509.5 613.5 c 128,-1,12
 501 671 501 671 484 716 c 2,13,-1
 466 762 l 1,14,-1
 566 807 l 2,15,16
 575 807 575 807 591 806 c 128,-1,17
 607 805 607 805 648.5 799 c 128,-1,18
 690 793 690 793 723.5 783.5 c 128,-1,19
 757 774 757 774 790.5 753 c 128,-1,20
 824 732 824 732 835 705 c 0,21,22
 864 635 864 635 877 546.5 c 128,-1,23
 890 458 890 458 888 381.5 c 128,-1,24
 886 305 886 305 880 238.5 c 128,-1,25
 874 172 874 172 866 133 c 2,26,-1
 859 94 l 1,27,-1
 822 18 l 1,28,-1
 605 18 l 1,29,-1
 531 100 l 1,30,31
 535 118 535 118 539.5 147.5 c 128,-1,32
 544 177 544 177 541.5 242 c 128,-1,33
 539 307 539 307 515 342 c 0,34,35
 493 373 493 373 446 362.5 c 128,-1,36
 399 352 399 352 384 315 c 0,37,38
 373 288 373 288 386 248.5 c 128,-1,39
 399 209 399 209 418 182 c 2,40,-1
 437 156 l 1,41,-1
 415 51 l 1,42,-1
 140 0 l 1,43,44
 79 88 79 88 73 154 c 0,45,46
 66 251 66 251 68.5 353.5 c 128,-1,47
 71 456 71 456 77 536 c 2,48,-1
 83 616 l 1,49,-1
 206 774 l 1,0,-1
EndSplineSet
Validated: 33
EndChar

StartChar: i
Encoding: 105 105 74
Width: 458
Flags: W
LayerCount: 2
Fore
SplineSet
153 744 m 0,0,1
 153 764 153 764 170.5 775.5 c 128,-1,2
 188 787 188 787 212 790 c 128,-1,3
 236 793 236 793 259.5 793.5 c 128,-1,4
 283 794 283 794 300 792 c 2,5,-1
 317 790 l 1,6,7
 369 733 369 733 369 722 c 256,8,9
 369 711 369 711 360 621.5 c 128,-1,10
 351 532 351 532 348 516 c 0,11,12
 345 504 345 504 358.5 315 c 128,-1,13
 372 126 372 126 371 112 c 0,14,15
 371 100 371 100 360.5 84.5 c 128,-1,16
 350 69 350 69 338.5 57.5 c 128,-1,17
 327 46 327 46 313 33.5 c 128,-1,18
 299 21 299 21 297 18 c 0,19,20
 291 13 291 13 260.5 18.5 c 128,-1,21
 230 24 230 24 202 33 c 2,22,-1
 175 41 l 1,23,24
 164 457 164 457 164 471 c 2,25,-1
 158 571 l 2,26,27
 157 584 157 584 156 604.5 c 128,-1,28
 155 625 155 625 153.5 671.5 c 128,-1,29
 152 718 152 718 153 744 c 0,0,1
EndSplineSet
Validated: 33
EndChar

StartChar: j
Encoding: 106 106 75
Width: 757
Flags: W
LayerCount: 2
Fore
SplineSet
64 733 m 1,0,1
 69 734 69 734 76.5 736 c 128,-1,2
 84 738 84 738 108.5 743.5 c 128,-1,3
 133 749 133 749 153 751 c 128,-1,4
 173 753 173 753 202 754.5 c 128,-1,5
 231 756 231 756 248 750 c 0,6,7
 328 732 328 732 448 728.5 c 128,-1,8
 568 725 568 725 648 731 c 2,9,-1
 729 737 l 1,10,-1
 704 603 l 1,11,12
 661 595 661 595 645 577 c 0,13,14
 637 569 637 569 632 552.5 c 128,-1,15
 627 536 627 536 626 524 c 2,16,-1
 624 512 l 1,17,-1
 656 184 l 1,18,19
 588 46 588 46 543 14 c 0,20,21
 514 -7 514 -7 468.5 -17 c 128,-1,22
 423 -27 423 -27 402 -27 c 0,23,24
 387 -27 387 -27 265 -12 c 128,-1,25
 143 3 143 3 133 9 c 0,26,27
 122 16 122 16 82 67.5 c 128,-1,28
 42 119 42 119 42 127 c 0,29,30
 42 144 42 144 44 210 c 1,31,32
 52 215 52 215 61.5 223.5 c 128,-1,33
 71 232 71 232 79.5 237.5 c 128,-1,34
 88 243 88 243 100 244 c 0,35,36
 111 245 111 245 150 240.5 c 128,-1,37
 189 236 189 236 222 231 c 2,38,-1
 256 226 l 2,39,40
 256 223 256 223 256 217 c 128,-1,41
 256 211 256 211 258.5 196.5 c 128,-1,42
 261 182 261 182 265 170.5 c 128,-1,43
 269 159 269 159 278 150 c 128,-1,44
 287 141 287 141 300 141 c 0,45,46
 306 141 306 141 320 141 c 128,-1,47
 334 141 334 141 338.5 141 c 128,-1,48
 343 141 343 141 353.5 141.5 c 128,-1,49
 364 142 364 142 370 143.5 c 128,-1,50
 376 145 376 145 384.5 147.5 c 128,-1,51
 393 150 393 150 402 154 c 0,52,53
 420 162 420 162 441.5 179.5 c 128,-1,54
 463 197 463 197 476 210 c 2,55,-1
 488 224 l 1,56,-1
 538 486 l 1,57,58
 534 518 534 518 497.5 544 c 128,-1,59
 461 570 461 570 420 582 c 0,60,61
 385 591 385 591 350 586.5 c 128,-1,62
 315 582 315 582 282 568 c 128,-1,63
 249 554 249 554 223.5 539 c 128,-1,64
 198 524 198 524 182 512 c 2,65,-1
 167 501 l 1,66,-1
 87 520 l 1,67,-1
 64 733 l 1,0,1
EndSplineSet
Validated: 33
EndChar

StartChar: k
Encoding: 107 107 76
Width: 889
Flags: W
LayerCount: 2
Fore
SplineSet
315 766 m 0,0,1
 254 524 254 524 286 471 c 0,2,3
 306 436 306 436 362 467 c 0,4,5
 366 470 366 470 373.5 475 c 128,-1,6
 381 480 381 480 399.5 495 c 128,-1,7
 418 510 418 510 432 524.5 c 128,-1,8
 446 539 446 539 457 558 c 128,-1,9
 468 577 468 577 467 592 c 0,10,11
 457 773 457 773 503 773 c 0,12,13
 510 773 510 773 516 768 c 1,14,-1
 735 778 l 1,15,-1
 791 729 l 1,16,-1
 735 545 l 1,17,-1
 603 432 l 1,18,-1
 490 406 l 1,19,-1
 544 356 l 1,20,-1
 742 332 l 1,21,-1
 852 205 l 1,22,-1
 862 135 l 1,23,24
 858 129 858 129 851.5 118 c 128,-1,25
 845 107 845 107 825 81.5 c 128,-1,26
 805 56 805 56 785.5 37.5 c 128,-1,27
 766 19 766 19 740 7.5 c 128,-1,28
 714 -4 714 -4 692 4 c 0,29,30
 636 23 636 23 591 67 c 128,-1,31
 546 111 546 111 518.5 156.5 c 128,-1,32
 491 202 491 202 447 260.5 c 128,-1,33
 403 319 403 319 355 358 c 0,34,35
 336 373 336 373 349 305 c 0,36,37
 354 279 354 279 354 279 c 1,38,-1
 382 52 l 1,39,-1
 354 26 l 1,40,-1
 92 35 l 1,41,-1
 47 133 l 1,42,-1
 145 301 l 1,43,-1
 143 332 l 1,44,-1
 88 354 l 1,45,-1
 49 727 l 1,46,47
 57 730 57 730 71 736 c 128,-1,48
 85 742 85 742 122 756 c 128,-1,49
 159 770 159 770 191 778.5 c 128,-1,50
 223 787 223 787 255 793 c 128,-1,51
 287 799 287 799 303.5 792.5 c 128,-1,52
 320 786 320 786 315 766 c 0,0,1
EndSplineSet
Validated: 33
EndChar

StartChar: l
Encoding: 108 108 77
Width: 759
Flags: W
LayerCount: 2
Fore
SplineSet
278 563 m 1,0,-1
 228 365 l 1,1,-1
 196 208 l 1,2,-1
 458 283 l 2,3,4
 463 284 463 284 472.5 286.5 c 128,-1,5
 482 289 482 289 508.5 293.5 c 128,-1,6
 535 298 535 298 559 298.5 c 128,-1,7
 583 299 583 299 611.5 293 c 128,-1,8
 640 287 640 287 659 272 c 0,9,10
 669 265 669 265 674.5 240.5 c 128,-1,11
 680 216 680 216 682 194 c 2,12,-1
 683 173 l 1,13,-1
 624 73 l 1,14,15
 609 70 609 70 583 65.5 c 128,-1,16
 557 61 557 61 485 51 c 128,-1,17
 413 41 413 41 350 36.5 c 128,-1,18
 287 32 287 32 217.5 37 c 128,-1,19
 148 42 148 42 109 60 c 0,20,21
 81 72 81 72 67 146 c 128,-1,22
 53 220 53 220 53 316 c 128,-1,23
 53 412 53 412 57.5 506.5 c 128,-1,24
 62 601 62 601 68 666 c 2,25,-1
 74 730 l 1,26,27
 85 760 85 760 138 793 c 0,28,29
 214 840 214 840 263 818 c 0,30,31
 343 781 343 781 278 563 c 1,0,-1
EndSplineSet
Validated: 33
EndChar

StartChar: m
Encoding: 109 109 78
Width: 847
Flags: W
LayerCount: 2
Fore
SplineSet
660 408 m 0,0,1
 657 380 657 380 640.5 347.5 c 128,-1,2
 624 315 624 315 602.5 289.5 c 128,-1,3
 581 264 581 264 559.5 242 c 128,-1,4
 538 220 538 220 523 208 c 2,5,-1
 508 196 l 1,6,-1
 479 70 l 1,7,-1
 516 26 l 1,8,-1
 776 27 l 1,9,10
 780 61 780 61 785.5 117.5 c 128,-1,11
 791 174 791 174 798 308.5 c 128,-1,12
 805 443 805 443 800 530 c 0,13,14
 798 561 798 561 789.5 627 c 128,-1,15
 781 693 781 693 774 744 c 2,16,-1
 766 794 l 1,17,-1
 564 742 l 1,18,-1
 444 552 l 1,19,-1
 338 634 l 1,20,-1
 222 786 l 1,21,-1
 50 748 l 1,22,-1
 32 456 l 1,23,-1
 36 44 l 1,24,25
 44 41 44 41 57 37 c 128,-1,26
 70 33 70 33 105 25.5 c 128,-1,27
 140 18 140 18 169.5 16 c 128,-1,28
 199 14 199 14 230 20.5 c 128,-1,29
 261 27 261 27 276 46 c 0,30,31
 305 84 305 84 321.5 129.5 c 128,-1,32
 338 175 338 175 340 202 c 2,33,-1
 341 229 l 1,34,-1
 236 405 l 1,35,-1
 234 488 l 1,36,-1
 298 472 l 1,37,-1
 385 349 l 1,38,-1
 468 337 l 1,39,-1
 496 402 l 1,40,-1
 538 521 l 1,41,42
 543 519 543 519 551.5 515.5 c 128,-1,43
 560 512 560 512 582 500 c 128,-1,44
 604 488 604 488 620 475.5 c 128,-1,45
 636 463 636 463 649 444.5 c 128,-1,46
 662 426 662 426 660 408 c 0,0,1
EndSplineSet
Validated: 41
EndChar

StartChar: n
Encoding: 110 110 79
Width: 892
Flags: W
LayerCount: 2
Fore
SplineSet
53 161 m 1,0,-1
 57 694 l 1,1,-1
 121 783 l 1,2,-1
 283 761 l 1,3,-1
 657 306 l 1,4,-1
 681 287 l 1,5,6
 637 592 637 592 629 604 c 0,7,8
 626 609 626 609 621 626 c 128,-1,9
 616 643 616 643 616 671.5 c 128,-1,10
 616 700 616 700 626 726.5 c 128,-1,11
 636 753 636 753 668.5 776 c 128,-1,12
 701 799 701 799 755 806 c 0,13,14
 788 810 788 810 808 806.5 c 128,-1,15
 828 803 828 803 836.5 794 c 128,-1,16
 845 785 845 785 847.5 776 c 128,-1,17
 850 767 850 767 848 760 c 2,18,-1
 847 753 l 1,19,-1
 831 34 l 1,20,-1
 672 30 l 1,21,-1
 606 71 l 1,22,-1
 283 461 l 1,23,-1
 267 432 l 2,24,25
 266 427 266 427 264 418.5 c 128,-1,26
 262 410 262 410 262.5 382.5 c 128,-1,27
 263 355 263 355 269 327 c 128,-1,28
 275 299 275 299 294.5 259 c 128,-1,29
 314 219 314 219 345 182 c 0,30,31
 381 139 381 139 395.5 99.5 c 128,-1,32
 410 60 410 60 406 42 c 2,33,-1
 403 24 l 1,34,-1
 166 16 l 1,35,-1
 53 161 l 1,0,-1
EndSplineSet
Validated: 33
EndChar

StartChar: o
Encoding: 111 111 80
Width: 792
Flags: W
LayerCount: 2
Fore
SplineSet
319 548 m 1,0,1
 319 548 319 548 344 278 c 0,2,3
 356 177 356 177 362 172 c 2,4,-1
 413 131 l 1,5,-1
 469 163 l 1,6,-1
 435 431 l 1,7,-1
 384 549 l 1,8,-1
 319 548 l 1,0,1
394 788 m 0,9,10
 400 789 400 789 410.5 788.5 c 128,-1,11
 421 788 421 788 452 781 c 128,-1,12
 483 774 483 774 511 760 c 128,-1,13
 539 746 539 746 574 714 c 128,-1,14
 609 682 609 682 633.5 636.5 c 128,-1,15
 658 591 658 591 675.5 516 c 128,-1,16
 693 441 693 441 694 346 c 0,17,18
 694 314 694 314 667.5 206.5 c 128,-1,19
 641 99 641 99 601 51 c 0,20,21
 570 16 570 16 535 -5.5 c 128,-1,22
 500 -27 500 -27 468 -33 c 128,-1,23
 436 -39 436 -39 404 -38 c 128,-1,24
 372 -37 372 -37 346.5 -29 c 128,-1,25
 321 -21 321 -21 301 -12.5 c 128,-1,26
 281 -4 281 -4 270 3 c 2,27,-1
 259 10 l 1,28,-1
 142 91 l 2,29,30
 139 97 139 97 132.5 113.5 c 128,-1,31
 126 130 126 130 111 211 c 128,-1,32
 96 292 96 292 86 407 c 1,33,-1
 98 572 l 2,34,35
 99 576 99 576 101 583.5 c 128,-1,36
 103 591 103 591 112.5 612.5 c 128,-1,37
 122 634 122 634 134.5 653.5 c 128,-1,38
 147 673 147 673 171 697.5 c 128,-1,39
 195 722 195 722 224 740 c 128,-1,40
 253 758 253 758 297.5 771.5 c 128,-1,41
 342 785 342 785 394 788 c 0,9,10
EndSplineSet
Validated: 33
EndChar

StartChar: p
Encoding: 112 112 81
Width: 837
Flags: W
LayerCount: 2
Fore
SplineSet
386 590 m 1,0,-1
 419 428 l 1,1,-1
 441 426 l 1,2,-1
 544 448 l 1,3,-1
 530 638 l 1,4,-1
 404 629 l 1,5,-1
 386 590 l 1,0,-1
151 774 m 1,6,7
 214 780 214 780 290 787.5 c 128,-1,8
 366 795 366 795 403.5 799 c 128,-1,9
 441 803 441 803 487.5 806 c 128,-1,10
 534 809 534 809 557 807 c 128,-1,11
 580 805 580 805 607 799 c 128,-1,12
 634 793 634 793 652 781 c 128,-1,13
 670 769 670 769 689 750 c 0,14,15
 702 737 702 737 732 663 c 128,-1,16
 762 589 762 589 780 505.5 c 128,-1,17
 798 422 798 422 769 376 c 1,18,19
 735 330 735 330 674.5 294 c 128,-1,20
 614 258 614 258 555.5 258 c 128,-1,21
 497 258 497 258 478 311 c 1,22,-1
 353 309 l 1,23,-1
 413 88 l 1,24,-1
 361 18 l 1,25,26
 353 15 353 15 339.5 11 c 128,-1,27
 326 7 326 7 294.5 1.5 c 128,-1,28
 263 -4 263 -4 243 0 c 0,29,30
 217 5 217 5 182.5 22 c 128,-1,31
 148 39 148 39 126 54 c 2,32,-1
 105 68 l 1,33,-1
 81 731 l 1,34,-1
 151 774 l 1,6,7
EndSplineSet
Validated: 33
EndChar

StartChar: q
Encoding: 113 113 82
Width: 839
Flags: W
LayerCount: 2
Fore
SplineSet
314 468 m 0,0,1
 266 433 266 433 247.5 394.5 c 128,-1,2
 229 356 229 356 231.5 324 c 128,-1,3
 234 292 234 292 250 242 c 0,4,5
 257 218 257 218 272 200.5 c 128,-1,6
 287 183 287 183 310.5 171.5 c 128,-1,7
 334 160 334 160 350.5 153.5 c 128,-1,8
 367 147 367 147 398 138.5 c 128,-1,9
 429 130 429 130 440 127 c 0,10,11
 450 124 450 124 461.5 132.5 c 128,-1,12
 473 141 473 141 480 152 c 2,13,-1
 487 162 l 2,14,15
 483 162 483 162 477 162.5 c 128,-1,16
 471 163 471 163 454 166.5 c 128,-1,17
 437 170 437 170 424 174.5 c 128,-1,18
 411 179 411 179 399 188.5 c 128,-1,19
 387 198 387 198 384 210 c 0,20,21
 378 234 378 234 393.5 266 c 128,-1,22
 409 298 409 298 428 318 c 2,23,-1
 446 338 l 1,24,-1
 580 229 l 1,25,26
 589 233 589 233 602 240.5 c 128,-1,27
 615 248 615 248 637 269.5 c 128,-1,28
 659 291 659 291 659 311 c 0,29,30
 659 340 659 340 645 366 c 128,-1,31
 631 392 631 392 620.5 403.5 c 128,-1,32
 610 415 610 415 578 446 c 0,33,34
 546 478 546 478 520 493 c 128,-1,35
 494 508 494 508 457 511 c 0,36,37
 381 518 381 518 314 468 c 0,0,1
630 744 m 0,38,39
 665 733 665 733 696.5 698.5 c 128,-1,40
 728 664 728 664 747.5 623 c 128,-1,41
 767 582 767 582 776.5 557.5 c 128,-1,42
 786 533 786 533 790 519 c 0,43,44
 794 503 794 503 785.5 427.5 c 128,-1,45
 777 352 777 352 757 299 c 0,46,47
 747 273 747 273 722.5 240.5 c 128,-1,48
 698 208 698 208 678 189 c 2,49,-1
 659 170 l 1,50,-1
 752 113 l 1,51,-1
 725 39 l 1,52,-1
 659 14 l 1,53,-1
 580 108 l 1,54,-1
 499 28 l 1,55,56
 481 24 481 24 452 20 c 128,-1,57
 423 16 423 16 357.5 15.5 c 128,-1,58
 292 15 292 15 256 30 c 0,59,60
 227 42 227 42 196 68.5 c 128,-1,61
 165 95 165 95 142 123.5 c 128,-1,62
 119 152 119 152 106 170.5 c 128,-1,63
 93 189 93 189 88 198 c 0,64,65
 73 225 73 225 66.5 288 c 128,-1,66
 60 351 60 351 61 400 c 2,67,-1
 62 450 l 2,68,69
 63 458 63 458 65.5 471.5 c 128,-1,70
 68 485 68 485 77 522 c 128,-1,71
 86 559 86 559 98 592 c 128,-1,72
 110 625 110 625 131.5 661.5 c 128,-1,73
 153 698 153 698 178 719 c 0,74,75
 250 779 250 779 378.5 783.5 c 128,-1,76
 507 788 507 788 630 744 c 0,38,39
EndSplineSet
Validated: 33
EndChar

StartChar: r
Encoding: 114 114 83
Width: 821
Flags: W
LayerCount: 2
Fore
SplineSet
271 784 m 1,0,1
 346 788 346 788 402 790 c 128,-1,2
 458 792 458 792 500.5 791 c 128,-1,3
 543 790 543 790 571 788 c 128,-1,4
 599 786 599 786 619 779 c 128,-1,5
 639 772 639 772 649.5 766.5 c 128,-1,6
 660 761 660 761 668 748 c 128,-1,7
 676 735 676 735 678.5 726 c 128,-1,8
 681 717 681 717 686.5 698 c 128,-1,9
 692 679 692 679 697 666 c 0,10,11
 706 642 706 642 712.5 609.5 c 128,-1,12
 719 577 719 577 722.5 536 c 128,-1,13
 726 495 726 495 716 455 c 128,-1,14
 706 415 706 415 681 389 c 1,15,-1
 480 344 l 1,16,-1
 554 298 l 1,17,-1
 687 288 l 2,18,19
 692 285 692 285 699.5 279.5 c 128,-1,20
 707 274 707 274 726 258.5 c 128,-1,21
 745 243 745 243 758.5 228.5 c 128,-1,22
 772 214 772 214 780.5 197 c 128,-1,23
 789 180 789 180 784 169 c 0,24,25
 766 132 766 132 724 92 c 128,-1,26
 682 52 682 52 648 31 c 2,27,-1
 615 10 l 1,28,-1
 564 38 l 1,29,-1
 437 218 l 1,30,31
 437 218 437 218 390 291 c 1,32,33
 300 417 300 417 284 359 c 0,34,35
 275 328 275 328 284 290 c 128,-1,36
 293 252 293 252 312 219 c 128,-1,37
 331 186 331 186 351 157 c 128,-1,38
 371 128 371 128 386 112 c 2,39,-1
 402 95 l 1,40,-1
 355 27 l 1,41,42
 347 24 347 24 335.5 20 c 128,-1,43
 324 16 324 16 295.5 11 c 128,-1,44
 267 6 267 6 248 10 c 0,45,46
 225 15 225 15 190.5 27.5 c 128,-1,47
 156 40 156 40 134 50 c 2,48,-1
 111 60 l 1,49,50
 108 69 108 69 104 86 c 128,-1,51
 100 103 100 103 91.5 159.5 c 128,-1,52
 83 216 83 216 80 278 c 128,-1,53
 77 340 77 340 83 436.5 c 128,-1,54
 89 533 89 533 107 633 c 0,55,56
 111 652 111 652 124 676 c 128,-1,57
 137 700 137 700 148 715 c 2,58,-1
 159 730 l 1,59,-1
 271 784 l 1,0,1
416 574 m 1,60,-1
 375 433 l 1,61,-1
 465 415 l 2,62,63
 469 415 469 415 475 414 c 128,-1,64
 481 413 481 413 496.5 412.5 c 128,-1,65
 512 412 512 412 524.5 414 c 128,-1,66
 537 416 537 416 548 422.5 c 128,-1,67
 559 429 559 429 561 441 c 0,68,69
 570 492 570 492 554.5 532.5 c 128,-1,70
 539 573 539 573 501 623 c 0,71,72
 491 633 491 633 475.5 630.5 c 128,-1,73
 460 628 460 628 446 620 c 2,74,-1
 432 612 l 1,75,-1
 416 574 l 1,60,-1
EndSplineSet
Validated: 33
EndChar

StartChar: s
Encoding: 115 115 84
Width: 780
Flags: W
LayerCount: 2
Fore
SplineSet
723 297 m 0,0,1
 737 282 737 282 741.5 257 c 128,-1,2
 746 232 746 232 742.5 207 c 128,-1,3
 739 182 739 182 733 159 c 128,-1,4
 727 136 727 136 722 122 c 2,5,-1
 716 108 l 1,6,7
 709 105 709 105 696.5 100 c 128,-1,8
 684 95 684 95 643.5 79.5 c 128,-1,9
 603 64 603 64 565 52.5 c 128,-1,10
 527 41 527 41 469 25 c 128,-1,11
 411 9 411 9 364 3 c 128,-1,12
 317 -3 317 -3 258 -7.5 c 128,-1,13
 199 -12 199 -12 159 -1 c 0,14,15
 122 6 122 6 97 28 c 128,-1,16
 72 50 72 50 59 86.5 c 128,-1,17
 46 123 46 123 40.5 156 c 128,-1,18
 35 189 35 189 32 236 c 0,19,20
 30 265 30 265 56 297.5 c 128,-1,21
 82 330 82 330 109 348 c 2,22,-1
 136 366 l 1,23,-1
 227 302 l 2,24,25
 329 234 329 234 403 216 c 0,26,27
 441 208 441 208 469 210 c 128,-1,28
 497 212 497 212 513 219 c 2,29,-1
 529 226 l 2,30,31
 530 228 530 228 532 232 c 128,-1,32
 534 236 534 236 536 247 c 128,-1,33
 538 258 538 258 535.5 268.5 c 128,-1,34
 533 279 533 279 520.5 292 c 128,-1,35
 508 305 508 305 485 315 c 0,36,37
 425 342 425 342 339.5 366.5 c 128,-1,38
 254 391 254 391 198 402 c 2,39,-1
 143 414 l 2,40,41
 141 417 141 417 137 421 c 128,-1,42
 133 425 133 425 121.5 439.5 c 128,-1,43
 110 454 110 454 101.5 467 c 128,-1,44
 93 480 93 480 81 500.5 c 128,-1,45
 69 521 69 521 65 537 c 128,-1,46
 61 553 61 553 58.5 573.5 c 128,-1,47
 56 594 56 594 65 608 c 0,48,49
 83 646 83 646 124 681.5 c 128,-1,50
 165 717 165 717 209.5 739.5 c 128,-1,51
 254 762 254 762 281 774 c 128,-1,52
 308 786 308 786 319 789 c 128,-1,53
 330 792 330 792 376.5 798.5 c 128,-1,54
 423 805 423 805 494 805 c 128,-1,55
 565 805 565 805 605 790 c 128,-1,56
 645 775 645 775 679.5 734 c 128,-1,57
 714 693 714 693 729 660 c 2,58,-1
 744 626 l 1,59,60
 741 610 741 610 735 585.5 c 128,-1,61
 729 561 729 561 708 515 c 128,-1,62
 687 469 687 469 664 457 c 0,63,64
 636 447 636 447 600 456.5 c 128,-1,65
 564 466 564 466 533 483 c 2,66,-1
 502 500 l 1,67,-1
 378 605 l 1,68,69
 378 605 378 605 339 583 c 1,70,71
 294 552 294 552 312 534 c 0,72,73
 359 488 359 488 417.5 457.5 c 128,-1,74
 476 427 476 427 522.5 413.5 c 128,-1,75
 569 400 569 400 625 371 c 128,-1,76
 681 342 681 342 723 297 c 0,0,1
EndSplineSet
Validated: 33
EndChar

StartChar: t
Encoding: 116 116 85
Width: 689
Flags: W
LayerCount: 2
Fore
SplineSet
257 33 m 1,0,1
 262 51 262 51 268 80.5 c 128,-1,2
 274 110 274 110 283.5 181 c 128,-1,3
 293 252 293 252 291 298 c 0,4,5
 290 333 290 333 277 382.5 c 128,-1,6
 264 432 264 432 252 463 c 2,7,-1
 239 495 l 1,8,-1
 228 506 l 1,9,-1
 189 506 l 2,10,11
 185 503 185 503 179.5 499 c 128,-1,12
 174 495 174 495 158.5 487 c 128,-1,13
 143 479 143 479 130 474.5 c 128,-1,14
 117 470 117 470 103 471 c 128,-1,15
 89 472 89 472 83 482 c 0,16,17
 60 518 60 518 46 580.5 c 128,-1,18
 32 643 32 643 28 688 c 2,19,-1
 25 733 l 1,20,21
 197 771 197 771 292 780 c 0,22,23
 341 785 341 785 428 789.5 c 128,-1,24
 515 794 515 794 577 797 c 2,25,-1
 639 799 l 1,26,27
 643 787 643 787 649 767 c 128,-1,28
 655 747 655 747 662 699.5 c 128,-1,29
 669 652 669 652 663 621 c 0,30,31
 660 600 660 600 642.5 578 c 128,-1,32
 625 556 625 556 609 545 c 2,33,-1
 593 534 l 2,34,35
 592 535 592 535 589.5 536 c 128,-1,36
 587 537 587 537 579 540.5 c 128,-1,37
 571 544 571 544 563.5 547 c 128,-1,38
 556 550 556 550 545 553 c 128,-1,39
 534 556 534 556 525 558.5 c 128,-1,40
 516 561 516 561 506 561.5 c 128,-1,41
 496 562 496 562 488.5 560.5 c 128,-1,42
 481 559 481 559 475.5 554.5 c 128,-1,43
 470 550 470 550 468 542 c 0,44,45
 454 481 454 481 457.5 430 c 128,-1,46
 461 379 461 379 469.5 324 c 128,-1,47
 478 269 478 269 487 223.5 c 128,-1,48
 496 178 496 178 493.5 128 c 128,-1,49
 491 78 491 78 473 36 c 0,50,51
 463 16 463 16 437.5 8.5 c 128,-1,52
 412 1 412 1 382 4 c 128,-1,53
 352 7 352 7 323.5 13 c 128,-1,54
 295 19 295 19 276 26 c 2,55,-1
 257 33 l 1,0,1
EndSplineSet
Validated: 33
EndChar

StartChar: u
Encoding: 117 117 86
Width: 751
Flags: W
LayerCount: 2
Fore
SplineSet
367 444 m 1,0,1
 367 444 367 444 299 166 c 1,2,3
 301 166 301 166 303.5 165.5 c 128,-1,4
 306 165 306 165 315 164 c 128,-1,5
 324 163 324 163 333 162 c 128,-1,6
 342 161 342 161 353.5 160.5 c 128,-1,7
 365 160 365 160 375.5 160 c 128,-1,8
 386 160 386 160 396.5 161 c 128,-1,9
 407 162 407 162 415 164 c 128,-1,10
 423 166 423 166 428.5 169.5 c 128,-1,11
 434 173 434 173 435 178 c 0,12,13
 448 266 448 266 437 311.5 c 128,-1,14
 426 357 426 357 410 427.5 c 128,-1,15
 394 498 394 498 399 558 c 0,16,17
 407 645 407 645 424.5 697.5 c 128,-1,18
 442 750 442 750 491 797 c 1,19,20
 515 814 515 814 547.5 811 c 128,-1,21
 580 808 580 808 608 796 c 2,22,-1
 637 784 l 1,23,24
 644 762 644 762 654 727 c 128,-1,25
 664 692 664 692 679.5 606.5 c 128,-1,26
 695 521 695 521 693 465 c 0,27,28
 688 336 688 336 678 298.5 c 128,-1,29
 668 261 668 261 609 158 c 0,30,31
 541 40 541 40 434 14 c 0,32,33
 392 4 392 4 330.5 14.5 c 128,-1,34
 269 25 269 25 228 41 c 2,35,-1
 188 57 l 1,36,37
 176 76 176 76 158.5 107.5 c 128,-1,38
 141 139 141 139 108.5 217 c 128,-1,39
 76 295 76 295 70 350 c 0,40,41
 62 422 62 422 71.5 525.5 c 128,-1,42
 81 629 81 629 94 696 c 2,43,-1
 108 764 l 1,44,45
 118 767 118 767 133.5 770 c 128,-1,46
 149 773 149 773 184 771.5 c 128,-1,47
 219 770 219 770 238 756 c 0,48,49
 254 744 254 744 286 666 c 128,-1,50
 318 588 318 588 342 516 c 2,51,-1
 367 444 l 1,0,1
EndSplineSet
Validated: 33
EndChar

StartChar: v
Encoding: 118 118 87
Width: 829
Flags: W
LayerCount: 2
Fore
SplineSet
46 588 m 0,0,1
 33 630 33 630 38 676.5 c 128,-1,2
 43 723 43 723 55 760 c 2,3,-1
 67 797 l 1,4,-1
 218 774 l 1,5,-1
 330 684 l 1,6,-1
 468 204 l 1,7,-1
 548 770 l 1,8,-1
 683 786 l 1,9,10
 688 781 688 781 697 772 c 128,-1,11
 706 763 706 763 728 735.5 c 128,-1,12
 750 708 750 708 766 682 c 128,-1,13
 782 656 782 656 793.5 622 c 128,-1,14
 805 588 805 588 802 561 c 0,15,16
 791 472 791 472 748.5 382.5 c 128,-1,17
 706 293 706 293 653.5 229.5 c 128,-1,18
 601 166 601 166 550.5 115.5 c 128,-1,19
 500 65 500 65 466 40 c 2,20,-1
 431 14 l 1,21,22
 392 104 392 104 344 138 c 0,23,24
 299 170 299 170 266.5 196 c 128,-1,25
 234 222 234 222 208.5 251.5 c 128,-1,26
 183 281 183 281 168 301 c 128,-1,27
 153 321 153 321 135.5 359 c 128,-1,28
 118 397 118 397 109 420 c 128,-1,29
 100 443 100 443 80 497.5 c 128,-1,30
 60 552 60 552 46 588 c 0,0,1
EndSplineSet
Validated: 33
EndChar

StartChar: w
Encoding: 119 119 88
Width: 962
Flags: W
LayerCount: 2
Fore
SplineSet
38 590 m 0,0,1
 35 634 35 634 68 687.5 c 128,-1,2
 101 741 101 741 135 773 c 2,3,-1
 169 805 l 1,4,-1
 398 684 l 1,5,6
 393 682 393 682 385 677.5 c 128,-1,7
 377 673 377 673 357 657 c 128,-1,8
 337 641 337 641 321.5 623 c 128,-1,9
 306 605 306 605 294.5 576 c 128,-1,10
 283 547 283 547 285 516 c 0,11,12
 288 471 288 471 308 408 c 128,-1,13
 328 345 328 345 346 304 c 2,14,-1
 365 264 l 1,15,-1
 497 436 l 1,16,17
 497 436 497 436 540 349 c 0,18,19
 625 192 625 192 645 266 c 0,20,21
 661 329 661 329 657.5 387.5 c 128,-1,22
 654 446 654 446 637.5 496 c 128,-1,23
 621 546 621 546 602.5 583 c 128,-1,24
 584 620 584 620 569 641 c 2,25,-1
 554 662 l 1,26,27
 560 668 560 668 570.5 678 c 128,-1,28
 581 688 581 688 610.5 713 c 128,-1,29
 640 738 640 738 666.5 756 c 128,-1,30
 693 774 693 774 724 787.5 c 128,-1,31
 755 801 755 801 776 797 c 0,32,33
 808 791 808 791 847 766.5 c 128,-1,34
 886 742 886 742 909 720 c 2,35,-1
 932 698 l 1,36,37
 878 457 878 457 816 287 c 0,38,39
 796 234 796 234 756.5 162 c 128,-1,40
 717 90 717 90 688 45 c 2,41,-1
 658 0 l 1,42,43
 655 10 655 10 650 26 c 128,-1,44
 645 42 645 42 628 83 c 128,-1,45
 611 124 611 124 591 155.5 c 128,-1,46
 571 187 571 187 540 214 c 128,-1,47
 509 241 509 241 476 242 c 0,48,49
 445 243 445 243 417 220 c 128,-1,50
 389 197 389 197 371 163.5 c 128,-1,51
 353 130 353 130 339 96 c 128,-1,52
 325 62 325 62 318 38 c 2,53,-1
 312 14 l 1,54,-1
 214 41 l 1,55,56
 207 54 207 54 196 77.5 c 128,-1,57
 185 101 185 101 156.5 169 c 128,-1,58
 128 237 128 237 105 301 c 128,-1,59
 82 365 82 365 62 446 c 128,-1,60
 42 527 42 527 38 590 c 0,0,1
EndSplineSet
Validated: 33
EndChar

StartChar: x
Encoding: 120 120 89
Width: 847
Flags: W
LayerCount: 2
Fore
SplineSet
107 796 m 1,0,1
 128 789 128 789 159.5 776.5 c 128,-1,2
 191 764 191 764 247 735.5 c 128,-1,3
 303 707 303 707 311 689 c 0,4,5
 341 621 341 621 358.5 524.5 c 128,-1,6
 376 428 376 428 370 409 c 0,7,8
 367 400 367 400 426 484.5 c 128,-1,9
 485 569 485 569 545 658 c 2,10,-1
 605 746 l 1,11,-1
 751 737 l 1,12,13
 756 724 756 724 761.5 703.5 c 128,-1,14
 767 683 767 683 768.5 638.5 c 128,-1,15
 770 594 770 594 751 571 c 0,16,17
 707 518 707 518 617.5 467.5 c 128,-1,18
 528 417 528 417 460 394 c 2,19,-1
 393 370 l 1,20,21
 407 368 407 368 468.5 370 c 128,-1,22
 530 372 530 372 631.5 361 c 128,-1,23
 733 350 733 350 783 328 c 0,24,25
 806 318 806 318 808 281.5 c 128,-1,26
 810 245 810 245 800 214 c 2,27,-1
 791 182 l 1,28,-1
 777 46 l 1,29,30
 554 118 554 118 515 156 c 0,31,32
 444 225 444 225 373 328 c 1,33,34
 287 68 287 68 261 58 c 0,35,36
 217 45 217 45 171 51.5 c 128,-1,37
 125 58 125 58 90 72 c 2,38,-1
 54 86 l 2,39,40
 53 90 53 90 52 95.5 c 128,-1,41
 51 101 51 101 48 117 c 128,-1,42
 45 133 45 133 44 146 c 128,-1,43
 43 159 43 159 44 172 c 128,-1,44
 45 185 45 185 50 190 c 0,45,46
 92 231 92 231 156 272.5 c 128,-1,47
 220 314 220 314 263 335 c 2,48,-1
 307 356 l 1,49,-1
 75 568 l 1,50,-1
 50 704 l 1,51,-1
 107 796 l 1,0,1
EndSplineSet
Validated: 33
EndChar

StartChar: y
Encoding: 121 121 90
Width: 858
Flags: W
LayerCount: 2
Fore
SplineSet
173 788 m 0,0,1
 202 783 202 783 242.5 749 c 128,-1,2
 283 715 283 715 308 684 c 2,3,-1
 334 652 l 1,4,5
 358 572 358 572 390 496 c 0,6,7
 402 467 402 467 414.5 421 c 128,-1,8
 427 375 427 375 434 344 c 2,9,-1
 440 312 l 1,10,-1
 558 696 l 1,11,-1
 638 793 l 1,12,13
 810 794 810 794 822 780 c 0,14,15
 833 768 833 768 836 730 c 128,-1,16
 839 692 839 692 837 660 c 2,17,-1
 835 629 l 1,18,-1
 468 234 l 1,19,-1
 536 102 l 1,20,-1
 558 56 l 1,21,-1
 544 3 l 1,22,-1
 334 6 l 1,23,-1
 310 48 l 2,24,25
 309 52 309 52 307 59.5 c 128,-1,26
 305 67 305 67 300.5 90 c 128,-1,27
 296 113 296 113 294.5 131 c 128,-1,28
 293 149 293 149 291.5 174.5 c 128,-1,29
 290 200 290 200 294 213 c 2,30,-1
 314 293 l 1,31,-1
 276 353 l 1,32,33
 24 700 24 700 20 714 c 1,34,35
 32 723 32 723 51 736.5 c 128,-1,36
 70 750 70 750 111.5 771 c 128,-1,37
 153 792 153 792 173 788 c 0,0,1
EndSplineSet
Validated: 33
EndChar

StartChar: z
Encoding: 122 122 91
Width: 761
Flags: W
LayerCount: 2
Fore
SplineSet
719 18 m 2,0,-1
 50 61 l 1,1,2
 46 70 46 70 40.5 83.5 c 128,-1,3
 35 97 35 97 27.5 130.5 c 128,-1,4
 20 164 20 164 23 186 c 0,5,6
 26 209 26 209 41.5 238.5 c 128,-1,7
 57 268 57 268 71 286 c 2,8,-1
 85 304 l 1,9,-1
 541 631 l 1,10,11
 525 627 525 627 498 621 c 128,-1,12
 471 615 471 615 400 599.5 c 128,-1,13
 329 584 329 584 272 572.5 c 128,-1,14
 215 561 215 561 162 552.5 c 128,-1,15
 109 544 109 544 95 546 c 128,-1,16
 81 548 81 548 69 561 c 128,-1,17
 57 574 57 574 50 591 c 128,-1,18
 43 608 43 608 38.5 624 c 128,-1,19
 34 640 34 640 32 652 c 2,20,-1
 30 663 l 1,21,-1
 77 812 l 1,22,-1
 632 772 l 1,23,-1
 712 715 l 1,24,25
 710 710 710 710 713 682 c 128,-1,26
 716 654 716 654 704.5 616.5 c 128,-1,27
 693 579 693 579 668 570 c 0,28,29
 526 518 526 518 425 456 c 128,-1,30
 324 394 324 394 280 348 c 128,-1,31
 236 302 236 302 214 254.5 c 128,-1,32
 192 207 192 207 191 191 c 128,-1,33
 190 175 190 175 191 166 c 1,34,35
 237 180 237 180 308 199 c 128,-1,36
 379 218 379 218 513 246.5 c 128,-1,37
 647 275 647 275 681 266 c 0,38,39
 693 263 693 263 700.5 235.5 c 128,-1,40
 708 208 708 208 710.5 171.5 c 128,-1,41
 713 135 713 135 713.5 99 c 128,-1,42
 714 63 714 63 715 39.5 c 128,-1,43
 716 16 716 16 719 18 c 2,0,-1
EndSplineSet
Validated: 37
EndChar

StartChar: braceleft
Encoding: 123 123 92
Width: 882
Flags: W
LayerCount: 2
Fore
SplineSet
540 205 m 1,0,-1
 618 190 l 1,1,-1
 613 123 l 1,2,-1
 419 28 l 1,3,-1
 168 0 l 1,4,5
 168 0 168 0 136 33 c 0,6,7
 86 93 86 93 117 109 c 0,8,9
 182 142 182 142 287.5 166 c 128,-1,10
 393 190 393 190 466 198 c 2,11,-1
 540 205 l 1,0,-1
516 419 m 1,12,-1
 550 350 l 1,13,14
 515 322 515 322 486 322 c 0,15,16
 422 322 422 322 331.5 325.5 c 128,-1,17
 241 329 241 329 182 332 c 2,18,-1
 123 336 l 1,19,-1
 122 453 l 1,20,-1
 177 521 l 1,21,-1
 516 419 l 1,12,-1
640 518 m 1,22,-1
 564 503 l 1,23,-1
 399 571 l 1,24,-1
 285 703 l 1,25,-1
 293 753 l 1,26,27
 306 753 306 753 327 752.5 c 128,-1,28
 348 752 348 752 395 743.5 c 128,-1,29
 442 735 442 735 467 718 c 0,30,31
 507 691 507 691 550.5 641 c 128,-1,32
 594 591 594 591 617 554 c 2,33,-1
 640 518 l 1,22,-1
EndSplineSet
Validated: 33
EndChar

StartChar: braceright
Encoding: 125 125 93
Width: 806
Flags: W
LayerCount: 2
Fore
SplineSet
324 214 m 1,0,1
 355 212 355 212 405 206.5 c 128,-1,2
 455 201 455 201 568.5 176 c 128,-1,3
 682 151 682 151 747 118 c 0,4,5
 759 111 759 111 758.5 98 c 128,-1,6
 758 85 758 85 748 70 c 128,-1,7
 738 55 738 55 726 41.5 c 128,-1,8
 714 28 714 28 704 19 c 2,9,-1
 695 10 l 1,10,-1
 445 37 l 1,11,-1
 250 133 l 1,12,-1
 246 200 l 1,13,-1
 324 214 l 1,0,1
348 429 m 1,14,-1
 686 530 l 1,15,-1
 742 463 l 1,16,-1
 740 346 l 1,17,18
 520 333 520 333 377 332 c 0,19,20
 364 332 364 332 348 339 c 128,-1,21
 332 346 332 346 322 353 c 2,22,-1
 313 360 l 1,23,-1
 348 429 l 1,14,-1
223 527 m 1,24,25
 232 543 232 543 248.5 568 c 128,-1,26
 265 593 265 593 310.5 647 c 128,-1,27
 356 701 356 701 396 728 c 0,28,29
 421 745 421 745 464.5 753.5 c 128,-1,30
 508 762 508 762 540 762 c 2,31,-1
 571 763 l 1,32,-1
 578 713 l 1,33,-1
 464 581 l 1,34,-1
 299 513 l 1,35,-1
 223 527 l 1,24,25
EndSplineSet
Validated: 1
EndChar

StartChar: asciitilde
Encoding: 126 126 94
Width: 1024
Flags: W
LayerCount: 2
Fore
SplineSet
132 290 m 1,0,1
 128 286 128 286 162 357 c 128,-1,2
 196 428 196 428 239.5 500 c 128,-1,3
 283 572 283 572 307 577 c 0,4,5
 360 589 360 589 448 571 c 128,-1,6
 536 553 536 553 544 507 c 0,7,8
 549 480 549 480 578.5 441.5 c 128,-1,9
 608 403 608 403 637 382 c 0,10,11
 649 376 649 376 665.5 378 c 128,-1,12
 682 380 682 380 699.5 398.5 c 128,-1,13
 717 417 717 417 732 441.5 c 128,-1,14
 747 466 747 466 754.5 506 c 128,-1,15
 762 546 762 546 759 591 c 0,16,17
 756 624 756 624 832 537 c 0,18,19
 837 531 837 531 837 531 c 1,20,-1
 839 518 l 2,21,22
 841 504 841 504 843.5 484 c 128,-1,23
 846 464 846 464 846 442 c 128,-1,24
 846 420 846 420 840 399 c 128,-1,25
 834 378 834 378 821 366 c 0,26,27
 809 355 809 355 752.5 330.5 c 128,-1,28
 696 306 696 306 666 302 c 0,29,30
 637 298 637 298 603 308 c 128,-1,31
 569 318 569 318 560 327 c 0,32,33
 558 329 558 329 513 411.5 c 128,-1,34
 468 494 468 494 454 503 c 0,35,36
 444 509 444 509 419.5 510.5 c 128,-1,37
 395 512 395 512 367 506.5 c 128,-1,38
 339 501 339 501 318.5 481 c 128,-1,39
 298 461 298 461 298 429 c 0,40,41
 298 393 298 393 289.5 366 c 128,-1,42
 281 339 281 339 266 324.5 c 128,-1,43
 251 310 251 310 233.5 301 c 128,-1,44
 216 292 216 292 198 289.5 c 128,-1,45
 180 287 180 287 165.5 287 c 128,-1,46
 151 287 151 287 142 288 c 2,47,-1
 132 290 l 1,0,1
EndSplineSet
Validated: 33
EndChar

StartChar: Ccedilla
Encoding: 199 199 95
Width: 823
Flags: W
LayerCount: 2
Fore
SplineSet
721 420 m 1,0,1
 721 420 721 420 542 445 c 1,2,-1
 517 485 l 1,3,-1
 306 469 l 1,4,-1
 246 374 l 1,5,-1
 274 339 l 1,6,-1
 600 360 l 1,7,-1
 718 318 l 1,8,-1
 733 139 l 1,9,-1
 504 70 l 1,10,11
 507 60 507 60 510 45 c 128,-1,12
 513 30 513 30 511 -0.5 c 128,-1,13
 509 -31 509 -31 493 -42 c 0,14,15
 470 -53 470 -53 442.5 -47.5 c 128,-1,16
 415 -42 415 -42 392 -30 c 2,17,-1
 369 -17 l 1,18,19
 367 -5 367 -5 372.5 34 c 128,-1,20
 378 73 378 73 377 84 c 0,21,22
 376 101 376 101 332.5 105 c 128,-1,23
 289 109 289 109 238 105.5 c 128,-1,24
 187 102 187 102 144.5 106 c 128,-1,25
 102 110 102 110 102 128 c 0,26,27
 102 144 102 144 94.5 222.5 c 128,-1,28
 87 301 87 301 80 379.5 c 128,-1,29
 73 458 73 458 70 535 c 128,-1,30
 67 612 67 612 76 627 c 0,31,32
 97 674 97 674 135 710 c 0,33,34
 167 741 167 741 214 771 c 0,35,36
 240 787 240 787 253 794 c 1,37,-1
 719 740 l 1,38,39
 720 701 720 701 735 640 c 0,40,41
 754 560 754 560 756 541 c 0,42,43
 759 506 759 506 751 477 c 0,44,45
 742 446 742 446 721 420 c 1,0,1
EndSplineSet
Validated: 33
EndChar

StartChar: Odieresis
Encoding: 214 214 96
Width: 923
Flags: W
LayerCount: 2
Fore
SplineSet
361 733 m 2,0,1
 361 733 361 733 317 694 c 0,2,3
 198 601 198 601 168 671 c 0,4,5
 167 675 167 675 166 678 c 0,6,7
 144 746 144 746 201 784 c 0,8,9
 249 815 249 815 303 802 c 0,10,11
 357 788 357 788 361 736 c 0,12,13
 361 735 361 735 361 733 c 2,0,1
780 655 m 1,14,15
 780 655 780 655 714 660 c 1,16,17
 593 677 593 677 597 731 c 0,18,19
 598 742 598 742 604 754 c 0,20,21
 636 817 636 817 703 804 c 0,22,23
 756 793 756 793 785 749 c 0,24,25
 819 697 819 697 780 655 c 1,14,15
408 439 m 1,26,27
 425 108 425 108 440 94 c 2,28,-1
 495 53 l 1,29,-1
 554 87 l 1,30,-1
 518 360 l 1,31,-1
 445 444 l 1,32,-1
 408 439 l 1,26,27
314 660 m 0,33,34
 347 679 347 679 403.5 689 c 128,-1,35
 460 699 460 699 500 700 c 2,36,-1
 540 700 l 1,37,-1
 741 592 l 1,38,-1
 812 264 l 2,39,40
 812 262 812 262 811 226 c 128,-1,41
 810 190 810 190 807 151.5 c 128,-1,42
 804 113 804 113 790.5 66.5 c 128,-1,43
 777 20 777 20 755 -8 c 0,44,45
 729 -40 729 -40 676.5 -54.5 c 128,-1,46
 624 -69 624 -69 584 -68 c 2,47,-1
 544 -67 l 1,48,-1
 241 -16 l 1,49,50
 165 314 165 314 165 326 c 2,51,-1
 201 507 l 2,52,53
 203 512 203 512 206 519.5 c 128,-1,54
 209 527 209 527 220 548.5 c 128,-1,55
 231 570 231 570 243 588.5 c 128,-1,56
 255 607 255 607 274.5 628 c 128,-1,57
 294 649 294 649 314 660 c 0,33,34
EndSplineSet
Validated: 33
EndChar

StartChar: Udieresis
Encoding: 220 220 97
Width: 741
Flags: W
LayerCount: 2
Fore
SplineSet
90 786 m 1,0,1
 96 791 96 791 107 797.5 c 128,-1,2
 118 804 118 804 146 813 c 128,-1,3
 174 822 174 822 196.5 819.5 c 128,-1,4
 219 817 219 817 239.5 790.5 c 128,-1,5
 260 764 260 764 264 711 c 0,6,7
 266 691 266 691 220 683.5 c 128,-1,8
 174 676 174 676 127 679 c 2,9,-1
 80 682 l 1,10,-1
 90 786 l 1,0,1
674 791 m 1,11,12
 669 783 669 783 659.5 771.5 c 128,-1,13
 650 760 650 760 621.5 735 c 128,-1,14
 593 710 593 710 566 698 c 128,-1,15
 539 686 539 686 504 693 c 128,-1,16
 469 700 469 700 440 737 c 0,17,18
 379 815 379 815 506 813 c 0,19,20
 579 813 579 813 674 791 c 1,11,12
250 520 m 1,21,-1
 337 158 l 2,22,23
 340 159 340 159 355.5 157.5 c 128,-1,24
 371 156 371 156 390.5 162 c 128,-1,25
 410 168 410 168 413 182 c 0,26,27
 427 250 427 250 430.5 349.5 c 128,-1,28
 434 449 434 449 430 514 c 2,29,-1
 426 580 l 1,30,-1
 468 678 l 1,31,-1
 614 666 l 1,32,33
 621 658 621 658 630.5 643 c 128,-1,34
 640 628 640 628 656 576.5 c 128,-1,35
 672 525 672 525 670 469 c 0,36,37
 670 455 670 455 668.5 410 c 128,-1,38
 667 365 667 365 666.5 351.5 c 128,-1,39
 666 338 666 338 664 301.5 c 128,-1,40
 662 265 662 265 658.5 249 c 128,-1,41
 655 233 655 233 649.5 202 c 128,-1,42
 644 171 644 171 636 150.5 c 128,-1,43
 628 130 628 130 616.5 103.5 c 128,-1,44
 605 77 605 77 590 51 c 0,45,46
 573 22 573 22 528.5 13.5 c 128,-1,47
 484 5 484 5 448 12 c 2,48,-1
 411 18 l 1,49,-1
 165 61 l 1,50,51
 153 80 153 80 135.5 111.5 c 128,-1,52
 118 143 118 143 86 221 c 128,-1,53
 54 299 54 299 48 354 c 0,54,55
 40 426 40 426 49 498.5 c 128,-1,56
 58 571 58 571 72 608 c 2,57,-1
 85 645 l 1,58,59
 95 648 95 648 110.5 651 c 128,-1,60
 126 654 126 654 161 652.5 c 128,-1,61
 196 651 196 651 215 637 c 0,62,63
 231 625 231 625 239.5 595.5 c 128,-1,64
 248 566 248 566 249 543 c 2,65,-1
 250 520 l 1,21,-1
EndSplineSet
Validated: 33
EndChar
